%TF.GenerationSoftware,KiCad,Pcbnew,7.0.7*%
%TF.CreationDate,2023-12-21T16:20:20-05:00*%
%TF.ProjectId,BDC_ctrl_w_hall_effect_latches,4244435f-6374-4726-9c5f-775f68616c6c,rev?*%
%TF.SameCoordinates,Original*%
%TF.FileFunction,Drillmap*%
%TF.FilePolarity,Positive*%
%FSLAX45Y45*%
G04 Gerber Fmt 4.5, Leading zero omitted, Abs format (unit mm)*
G04 Created by KiCad (PCBNEW 7.0.7) date 2023-12-21 16:20:20*
%MOMM*%
%LPD*%
G01*
G04 APERTURE LIST*
%ADD10C,0.100000*%
%ADD11C,0.200000*%
%ADD12C,0.090000*%
G04 APERTURE END LIST*
D10*
X2000000Y-1500000D02*
G75*
G03*
X1500000Y-2000000I0J-500000D01*
G01*
X2120000Y-1900000D02*
G75*
G03*
X2120000Y-1900000I-220000J0D01*
G01*
X1500000Y-4000000D02*
X1500000Y-2000000D01*
X2000000Y-1500000D02*
X4000000Y-1500000D01*
X4320000Y-1900000D02*
G75*
G03*
X4320000Y-1900000I-220000J0D01*
G01*
X4500000Y-2000000D02*
G75*
G03*
X4000000Y-1500000I-500000J0D01*
G01*
X4320000Y-4100000D02*
G75*
G03*
X4320000Y-4100000I-220000J0D01*
G01*
X4000000Y-4500000D02*
X2000000Y-4500000D01*
X1500000Y-4000000D02*
G75*
G03*
X2000000Y-4500000I500000J0D01*
G01*
X2120000Y-4100000D02*
G75*
G03*
X2120000Y-4100000I-220000J0D01*
G01*
X4000000Y-4500000D02*
G75*
G03*
X4500000Y-4000000I0J500000D01*
G01*
X4500000Y-2000000D02*
X4500000Y-4000000D01*
D11*
D12*
X2823720Y-4243260D02*
X2913720Y-4333260D01*
X2913720Y-4243260D02*
X2823720Y-4333260D01*
X3123720Y-4243260D02*
X3213720Y-4333260D01*
X3213720Y-4243260D02*
X3123720Y-4333260D01*
D11*
X1755777Y-4816484D02*
X1755777Y-4616484D01*
X1755777Y-4616484D02*
X1803396Y-4616484D01*
X1803396Y-4616484D02*
X1831967Y-4626008D01*
X1831967Y-4626008D02*
X1851015Y-4645055D01*
X1851015Y-4645055D02*
X1860539Y-4664103D01*
X1860539Y-4664103D02*
X1870062Y-4702198D01*
X1870062Y-4702198D02*
X1870062Y-4730770D01*
X1870062Y-4730770D02*
X1860539Y-4768865D01*
X1860539Y-4768865D02*
X1851015Y-4787912D01*
X1851015Y-4787912D02*
X1831967Y-4806960D01*
X1831967Y-4806960D02*
X1803396Y-4816484D01*
X1803396Y-4816484D02*
X1755777Y-4816484D01*
X1955777Y-4816484D02*
X1955777Y-4683150D01*
X1955777Y-4721246D02*
X1965301Y-4702198D01*
X1965301Y-4702198D02*
X1974824Y-4692674D01*
X1974824Y-4692674D02*
X1993872Y-4683150D01*
X1993872Y-4683150D02*
X2012920Y-4683150D01*
X2079586Y-4816484D02*
X2079586Y-4683150D01*
X2079586Y-4616484D02*
X2070062Y-4626008D01*
X2070062Y-4626008D02*
X2079586Y-4635531D01*
X2079586Y-4635531D02*
X2089110Y-4626008D01*
X2089110Y-4626008D02*
X2079586Y-4616484D01*
X2079586Y-4616484D02*
X2079586Y-4635531D01*
X2203396Y-4816484D02*
X2184348Y-4806960D01*
X2184348Y-4806960D02*
X2174824Y-4787912D01*
X2174824Y-4787912D02*
X2174824Y-4616484D01*
X2308158Y-4816484D02*
X2289110Y-4806960D01*
X2289110Y-4806960D02*
X2279586Y-4787912D01*
X2279586Y-4787912D02*
X2279586Y-4616484D01*
X2536729Y-4816484D02*
X2536729Y-4616484D01*
X2536729Y-4616484D02*
X2603396Y-4759341D01*
X2603396Y-4759341D02*
X2670063Y-4616484D01*
X2670063Y-4616484D02*
X2670063Y-4816484D01*
X2851015Y-4816484D02*
X2851015Y-4711722D01*
X2851015Y-4711722D02*
X2841491Y-4692674D01*
X2841491Y-4692674D02*
X2822443Y-4683150D01*
X2822443Y-4683150D02*
X2784348Y-4683150D01*
X2784348Y-4683150D02*
X2765301Y-4692674D01*
X2851015Y-4806960D02*
X2831967Y-4816484D01*
X2831967Y-4816484D02*
X2784348Y-4816484D01*
X2784348Y-4816484D02*
X2765301Y-4806960D01*
X2765301Y-4806960D02*
X2755777Y-4787912D01*
X2755777Y-4787912D02*
X2755777Y-4768865D01*
X2755777Y-4768865D02*
X2765301Y-4749817D01*
X2765301Y-4749817D02*
X2784348Y-4740293D01*
X2784348Y-4740293D02*
X2831967Y-4740293D01*
X2831967Y-4740293D02*
X2851015Y-4730770D01*
X2946253Y-4683150D02*
X2946253Y-4883150D01*
X2946253Y-4692674D02*
X2965301Y-4683150D01*
X2965301Y-4683150D02*
X3003396Y-4683150D01*
X3003396Y-4683150D02*
X3022443Y-4692674D01*
X3022443Y-4692674D02*
X3031967Y-4702198D01*
X3031967Y-4702198D02*
X3041491Y-4721246D01*
X3041491Y-4721246D02*
X3041491Y-4778389D01*
X3041491Y-4778389D02*
X3031967Y-4797436D01*
X3031967Y-4797436D02*
X3022443Y-4806960D01*
X3022443Y-4806960D02*
X3003396Y-4816484D01*
X3003396Y-4816484D02*
X2965301Y-4816484D01*
X2965301Y-4816484D02*
X2946253Y-4806960D01*
X3127205Y-4797436D02*
X3136729Y-4806960D01*
X3136729Y-4806960D02*
X3127205Y-4816484D01*
X3127205Y-4816484D02*
X3117682Y-4806960D01*
X3117682Y-4806960D02*
X3127205Y-4797436D01*
X3127205Y-4797436D02*
X3127205Y-4816484D01*
X3127205Y-4692674D02*
X3136729Y-4702198D01*
X3136729Y-4702198D02*
X3127205Y-4711722D01*
X3127205Y-4711722D02*
X3117682Y-4702198D01*
X3117682Y-4702198D02*
X3127205Y-4692674D01*
X3127205Y-4692674D02*
X3127205Y-4711722D01*
D12*
X1405000Y-5100000D02*
X1495000Y-5190000D01*
X1495000Y-5100000D02*
X1405000Y-5190000D01*
D11*
X1793872Y-5036484D02*
X1812920Y-5036484D01*
X1812920Y-5036484D02*
X1831967Y-5046008D01*
X1831967Y-5046008D02*
X1841491Y-5055531D01*
X1841491Y-5055531D02*
X1851015Y-5074579D01*
X1851015Y-5074579D02*
X1860539Y-5112674D01*
X1860539Y-5112674D02*
X1860539Y-5160293D01*
X1860539Y-5160293D02*
X1851015Y-5198389D01*
X1851015Y-5198389D02*
X1841491Y-5217436D01*
X1841491Y-5217436D02*
X1831967Y-5226960D01*
X1831967Y-5226960D02*
X1812920Y-5236484D01*
X1812920Y-5236484D02*
X1793872Y-5236484D01*
X1793872Y-5236484D02*
X1774824Y-5226960D01*
X1774824Y-5226960D02*
X1765301Y-5217436D01*
X1765301Y-5217436D02*
X1755777Y-5198389D01*
X1755777Y-5198389D02*
X1746253Y-5160293D01*
X1746253Y-5160293D02*
X1746253Y-5112674D01*
X1746253Y-5112674D02*
X1755777Y-5074579D01*
X1755777Y-5074579D02*
X1765301Y-5055531D01*
X1765301Y-5055531D02*
X1774824Y-5046008D01*
X1774824Y-5046008D02*
X1793872Y-5036484D01*
X1946253Y-5217436D02*
X1955777Y-5226960D01*
X1955777Y-5226960D02*
X1946253Y-5236484D01*
X1946253Y-5236484D02*
X1936729Y-5226960D01*
X1936729Y-5226960D02*
X1946253Y-5217436D01*
X1946253Y-5217436D02*
X1946253Y-5236484D01*
X2051015Y-5236484D02*
X2089110Y-5236484D01*
X2089110Y-5236484D02*
X2108158Y-5226960D01*
X2108158Y-5226960D02*
X2117682Y-5217436D01*
X2117682Y-5217436D02*
X2136729Y-5188865D01*
X2136729Y-5188865D02*
X2146253Y-5150770D01*
X2146253Y-5150770D02*
X2146253Y-5074579D01*
X2146253Y-5074579D02*
X2136729Y-5055531D01*
X2136729Y-5055531D02*
X2127205Y-5046008D01*
X2127205Y-5046008D02*
X2108158Y-5036484D01*
X2108158Y-5036484D02*
X2070062Y-5036484D01*
X2070062Y-5036484D02*
X2051015Y-5046008D01*
X2051015Y-5046008D02*
X2041491Y-5055531D01*
X2041491Y-5055531D02*
X2031967Y-5074579D01*
X2031967Y-5074579D02*
X2031967Y-5122198D01*
X2031967Y-5122198D02*
X2041491Y-5141246D01*
X2041491Y-5141246D02*
X2051015Y-5150770D01*
X2051015Y-5150770D02*
X2070062Y-5160293D01*
X2070062Y-5160293D02*
X2108158Y-5160293D01*
X2108158Y-5160293D02*
X2127205Y-5150770D01*
X2127205Y-5150770D02*
X2136729Y-5141246D01*
X2136729Y-5141246D02*
X2146253Y-5122198D01*
X2270063Y-5036484D02*
X2289110Y-5036484D01*
X2289110Y-5036484D02*
X2308158Y-5046008D01*
X2308158Y-5046008D02*
X2317682Y-5055531D01*
X2317682Y-5055531D02*
X2327205Y-5074579D01*
X2327205Y-5074579D02*
X2336729Y-5112674D01*
X2336729Y-5112674D02*
X2336729Y-5160293D01*
X2336729Y-5160293D02*
X2327205Y-5198389D01*
X2327205Y-5198389D02*
X2317682Y-5217436D01*
X2317682Y-5217436D02*
X2308158Y-5226960D01*
X2308158Y-5226960D02*
X2289110Y-5236484D01*
X2289110Y-5236484D02*
X2270063Y-5236484D01*
X2270063Y-5236484D02*
X2251015Y-5226960D01*
X2251015Y-5226960D02*
X2241491Y-5217436D01*
X2241491Y-5217436D02*
X2231967Y-5198389D01*
X2231967Y-5198389D02*
X2222444Y-5160293D01*
X2222444Y-5160293D02*
X2222444Y-5112674D01*
X2222444Y-5112674D02*
X2231967Y-5074579D01*
X2231967Y-5074579D02*
X2241491Y-5055531D01*
X2241491Y-5055531D02*
X2251015Y-5046008D01*
X2251015Y-5046008D02*
X2270063Y-5036484D01*
X2460539Y-5036484D02*
X2479586Y-5036484D01*
X2479586Y-5036484D02*
X2498634Y-5046008D01*
X2498634Y-5046008D02*
X2508158Y-5055531D01*
X2508158Y-5055531D02*
X2517682Y-5074579D01*
X2517682Y-5074579D02*
X2527205Y-5112674D01*
X2527205Y-5112674D02*
X2527205Y-5160293D01*
X2527205Y-5160293D02*
X2517682Y-5198389D01*
X2517682Y-5198389D02*
X2508158Y-5217436D01*
X2508158Y-5217436D02*
X2498634Y-5226960D01*
X2498634Y-5226960D02*
X2479586Y-5236484D01*
X2479586Y-5236484D02*
X2460539Y-5236484D01*
X2460539Y-5236484D02*
X2441491Y-5226960D01*
X2441491Y-5226960D02*
X2431967Y-5217436D01*
X2431967Y-5217436D02*
X2422444Y-5198389D01*
X2422444Y-5198389D02*
X2412920Y-5160293D01*
X2412920Y-5160293D02*
X2412920Y-5112674D01*
X2412920Y-5112674D02*
X2422444Y-5074579D01*
X2422444Y-5074579D02*
X2431967Y-5055531D01*
X2431967Y-5055531D02*
X2441491Y-5046008D01*
X2441491Y-5046008D02*
X2460539Y-5036484D01*
X2612920Y-5236484D02*
X2612920Y-5103150D01*
X2612920Y-5122198D02*
X2622444Y-5112674D01*
X2622444Y-5112674D02*
X2641491Y-5103150D01*
X2641491Y-5103150D02*
X2670063Y-5103150D01*
X2670063Y-5103150D02*
X2689110Y-5112674D01*
X2689110Y-5112674D02*
X2698634Y-5131722D01*
X2698634Y-5131722D02*
X2698634Y-5236484D01*
X2698634Y-5131722D02*
X2708158Y-5112674D01*
X2708158Y-5112674D02*
X2727205Y-5103150D01*
X2727205Y-5103150D02*
X2755777Y-5103150D01*
X2755777Y-5103150D02*
X2774825Y-5112674D01*
X2774825Y-5112674D02*
X2784348Y-5131722D01*
X2784348Y-5131722D02*
X2784348Y-5236484D01*
X2879586Y-5236484D02*
X2879586Y-5103150D01*
X2879586Y-5122198D02*
X2889110Y-5112674D01*
X2889110Y-5112674D02*
X2908158Y-5103150D01*
X2908158Y-5103150D02*
X2936729Y-5103150D01*
X2936729Y-5103150D02*
X2955777Y-5112674D01*
X2955777Y-5112674D02*
X2965301Y-5131722D01*
X2965301Y-5131722D02*
X2965301Y-5236484D01*
X2965301Y-5131722D02*
X2974824Y-5112674D01*
X2974824Y-5112674D02*
X2993872Y-5103150D01*
X2993872Y-5103150D02*
X3022443Y-5103150D01*
X3022443Y-5103150D02*
X3041491Y-5112674D01*
X3041491Y-5112674D02*
X3051015Y-5131722D01*
X3051015Y-5131722D02*
X3051015Y-5236484D01*
X3441491Y-5026960D02*
X3270063Y-5284103D01*
X3698634Y-5036484D02*
X3717682Y-5036484D01*
X3717682Y-5036484D02*
X3736729Y-5046008D01*
X3736729Y-5046008D02*
X3746253Y-5055531D01*
X3746253Y-5055531D02*
X3755777Y-5074579D01*
X3755777Y-5074579D02*
X3765301Y-5112674D01*
X3765301Y-5112674D02*
X3765301Y-5160293D01*
X3765301Y-5160293D02*
X3755777Y-5198389D01*
X3755777Y-5198389D02*
X3746253Y-5217436D01*
X3746253Y-5217436D02*
X3736729Y-5226960D01*
X3736729Y-5226960D02*
X3717682Y-5236484D01*
X3717682Y-5236484D02*
X3698634Y-5236484D01*
X3698634Y-5236484D02*
X3679586Y-5226960D01*
X3679586Y-5226960D02*
X3670063Y-5217436D01*
X3670063Y-5217436D02*
X3660539Y-5198389D01*
X3660539Y-5198389D02*
X3651015Y-5160293D01*
X3651015Y-5160293D02*
X3651015Y-5112674D01*
X3651015Y-5112674D02*
X3660539Y-5074579D01*
X3660539Y-5074579D02*
X3670063Y-5055531D01*
X3670063Y-5055531D02*
X3679586Y-5046008D01*
X3679586Y-5046008D02*
X3698634Y-5036484D01*
X3851015Y-5217436D02*
X3860539Y-5226960D01*
X3860539Y-5226960D02*
X3851015Y-5236484D01*
X3851015Y-5236484D02*
X3841491Y-5226960D01*
X3841491Y-5226960D02*
X3851015Y-5217436D01*
X3851015Y-5217436D02*
X3851015Y-5236484D01*
X3984348Y-5036484D02*
X4003396Y-5036484D01*
X4003396Y-5036484D02*
X4022444Y-5046008D01*
X4022444Y-5046008D02*
X4031967Y-5055531D01*
X4031967Y-5055531D02*
X4041491Y-5074579D01*
X4041491Y-5074579D02*
X4051015Y-5112674D01*
X4051015Y-5112674D02*
X4051015Y-5160293D01*
X4051015Y-5160293D02*
X4041491Y-5198389D01*
X4041491Y-5198389D02*
X4031967Y-5217436D01*
X4031967Y-5217436D02*
X4022444Y-5226960D01*
X4022444Y-5226960D02*
X4003396Y-5236484D01*
X4003396Y-5236484D02*
X3984348Y-5236484D01*
X3984348Y-5236484D02*
X3965301Y-5226960D01*
X3965301Y-5226960D02*
X3955777Y-5217436D01*
X3955777Y-5217436D02*
X3946253Y-5198389D01*
X3946253Y-5198389D02*
X3936729Y-5160293D01*
X3936729Y-5160293D02*
X3936729Y-5112674D01*
X3936729Y-5112674D02*
X3946253Y-5074579D01*
X3946253Y-5074579D02*
X3955777Y-5055531D01*
X3955777Y-5055531D02*
X3965301Y-5046008D01*
X3965301Y-5046008D02*
X3984348Y-5036484D01*
X4117682Y-5036484D02*
X4241491Y-5036484D01*
X4241491Y-5036484D02*
X4174825Y-5112674D01*
X4174825Y-5112674D02*
X4203396Y-5112674D01*
X4203396Y-5112674D02*
X4222444Y-5122198D01*
X4222444Y-5122198D02*
X4231968Y-5131722D01*
X4231968Y-5131722D02*
X4241491Y-5150770D01*
X4241491Y-5150770D02*
X4241491Y-5198389D01*
X4241491Y-5198389D02*
X4231968Y-5217436D01*
X4231968Y-5217436D02*
X4222444Y-5226960D01*
X4222444Y-5226960D02*
X4203396Y-5236484D01*
X4203396Y-5236484D02*
X4146253Y-5236484D01*
X4146253Y-5236484D02*
X4127206Y-5226960D01*
X4127206Y-5226960D02*
X4117682Y-5217436D01*
X4422444Y-5036484D02*
X4327206Y-5036484D01*
X4327206Y-5036484D02*
X4317682Y-5131722D01*
X4317682Y-5131722D02*
X4327206Y-5122198D01*
X4327206Y-5122198D02*
X4346253Y-5112674D01*
X4346253Y-5112674D02*
X4393872Y-5112674D01*
X4393872Y-5112674D02*
X4412920Y-5122198D01*
X4412920Y-5122198D02*
X4422444Y-5131722D01*
X4422444Y-5131722D02*
X4431968Y-5150770D01*
X4431968Y-5150770D02*
X4431968Y-5198389D01*
X4431968Y-5198389D02*
X4422444Y-5217436D01*
X4422444Y-5217436D02*
X4412920Y-5226960D01*
X4412920Y-5226960D02*
X4393872Y-5236484D01*
X4393872Y-5236484D02*
X4346253Y-5236484D01*
X4346253Y-5236484D02*
X4327206Y-5226960D01*
X4327206Y-5226960D02*
X4317682Y-5217436D01*
X4603396Y-5103150D02*
X4603396Y-5236484D01*
X4555777Y-5026960D02*
X4508158Y-5169817D01*
X4508158Y-5169817D02*
X4631968Y-5169817D01*
X4698634Y-5036484D02*
X4698634Y-5074579D01*
X4774825Y-5036484D02*
X4774825Y-5074579D01*
X5070063Y-5312674D02*
X5060539Y-5303150D01*
X5060539Y-5303150D02*
X5041491Y-5274579D01*
X5041491Y-5274579D02*
X5031968Y-5255531D01*
X5031968Y-5255531D02*
X5022444Y-5226960D01*
X5022444Y-5226960D02*
X5012920Y-5179341D01*
X5012920Y-5179341D02*
X5012920Y-5141246D01*
X5012920Y-5141246D02*
X5022444Y-5093627D01*
X5022444Y-5093627D02*
X5031968Y-5065055D01*
X5031968Y-5065055D02*
X5041491Y-5046008D01*
X5041491Y-5046008D02*
X5060539Y-5017436D01*
X5060539Y-5017436D02*
X5070063Y-5007912D01*
X5136730Y-5055531D02*
X5146253Y-5046008D01*
X5146253Y-5046008D02*
X5165301Y-5036484D01*
X5165301Y-5036484D02*
X5212920Y-5036484D01*
X5212920Y-5036484D02*
X5231968Y-5046008D01*
X5231968Y-5046008D02*
X5241491Y-5055531D01*
X5241491Y-5055531D02*
X5251015Y-5074579D01*
X5251015Y-5074579D02*
X5251015Y-5093627D01*
X5251015Y-5093627D02*
X5241491Y-5122198D01*
X5241491Y-5122198D02*
X5127206Y-5236484D01*
X5127206Y-5236484D02*
X5251015Y-5236484D01*
X5489111Y-5236484D02*
X5489111Y-5036484D01*
X5574825Y-5236484D02*
X5574825Y-5131722D01*
X5574825Y-5131722D02*
X5565301Y-5112674D01*
X5565301Y-5112674D02*
X5546253Y-5103150D01*
X5546253Y-5103150D02*
X5517682Y-5103150D01*
X5517682Y-5103150D02*
X5498634Y-5112674D01*
X5498634Y-5112674D02*
X5489111Y-5122198D01*
X5698634Y-5236484D02*
X5679587Y-5226960D01*
X5679587Y-5226960D02*
X5670063Y-5217436D01*
X5670063Y-5217436D02*
X5660539Y-5198389D01*
X5660539Y-5198389D02*
X5660539Y-5141246D01*
X5660539Y-5141246D02*
X5670063Y-5122198D01*
X5670063Y-5122198D02*
X5679587Y-5112674D01*
X5679587Y-5112674D02*
X5698634Y-5103150D01*
X5698634Y-5103150D02*
X5727206Y-5103150D01*
X5727206Y-5103150D02*
X5746253Y-5112674D01*
X5746253Y-5112674D02*
X5755777Y-5122198D01*
X5755777Y-5122198D02*
X5765301Y-5141246D01*
X5765301Y-5141246D02*
X5765301Y-5198389D01*
X5765301Y-5198389D02*
X5755777Y-5217436D01*
X5755777Y-5217436D02*
X5746253Y-5226960D01*
X5746253Y-5226960D02*
X5727206Y-5236484D01*
X5727206Y-5236484D02*
X5698634Y-5236484D01*
X5879587Y-5236484D02*
X5860539Y-5226960D01*
X5860539Y-5226960D02*
X5851015Y-5207912D01*
X5851015Y-5207912D02*
X5851015Y-5036484D01*
X6031968Y-5226960D02*
X6012920Y-5236484D01*
X6012920Y-5236484D02*
X5974825Y-5236484D01*
X5974825Y-5236484D02*
X5955777Y-5226960D01*
X5955777Y-5226960D02*
X5946253Y-5207912D01*
X5946253Y-5207912D02*
X5946253Y-5131722D01*
X5946253Y-5131722D02*
X5955777Y-5112674D01*
X5955777Y-5112674D02*
X5974825Y-5103150D01*
X5974825Y-5103150D02*
X6012920Y-5103150D01*
X6012920Y-5103150D02*
X6031968Y-5112674D01*
X6031968Y-5112674D02*
X6041491Y-5131722D01*
X6041491Y-5131722D02*
X6041491Y-5150770D01*
X6041491Y-5150770D02*
X5946253Y-5169817D01*
X6117682Y-5226960D02*
X6136730Y-5236484D01*
X6136730Y-5236484D02*
X6174825Y-5236484D01*
X6174825Y-5236484D02*
X6193872Y-5226960D01*
X6193872Y-5226960D02*
X6203396Y-5207912D01*
X6203396Y-5207912D02*
X6203396Y-5198389D01*
X6203396Y-5198389D02*
X6193872Y-5179341D01*
X6193872Y-5179341D02*
X6174825Y-5169817D01*
X6174825Y-5169817D02*
X6146253Y-5169817D01*
X6146253Y-5169817D02*
X6127206Y-5160293D01*
X6127206Y-5160293D02*
X6117682Y-5141246D01*
X6117682Y-5141246D02*
X6117682Y-5131722D01*
X6117682Y-5131722D02*
X6127206Y-5112674D01*
X6127206Y-5112674D02*
X6146253Y-5103150D01*
X6146253Y-5103150D02*
X6174825Y-5103150D01*
X6174825Y-5103150D02*
X6193872Y-5112674D01*
X6270063Y-5312674D02*
X6279587Y-5303150D01*
X6279587Y-5303150D02*
X6298634Y-5274579D01*
X6298634Y-5274579D02*
X6308158Y-5255531D01*
X6308158Y-5255531D02*
X6317682Y-5226960D01*
X6317682Y-5226960D02*
X6327206Y-5179341D01*
X6327206Y-5179341D02*
X6327206Y-5141246D01*
X6327206Y-5141246D02*
X6317682Y-5093627D01*
X6317682Y-5093627D02*
X6308158Y-5065055D01*
X6308158Y-5065055D02*
X6298634Y-5046008D01*
X6298634Y-5046008D02*
X6279587Y-5017436D01*
X6279587Y-5017436D02*
X6270063Y-5007912D01*
X6631968Y-5312674D02*
X6622444Y-5303150D01*
X6622444Y-5303150D02*
X6603396Y-5274579D01*
X6603396Y-5274579D02*
X6593872Y-5255531D01*
X6593872Y-5255531D02*
X6584349Y-5226960D01*
X6584349Y-5226960D02*
X6574825Y-5179341D01*
X6574825Y-5179341D02*
X6574825Y-5141246D01*
X6574825Y-5141246D02*
X6584349Y-5093627D01*
X6584349Y-5093627D02*
X6593872Y-5065055D01*
X6593872Y-5065055D02*
X6603396Y-5046008D01*
X6603396Y-5046008D02*
X6622444Y-5017436D01*
X6622444Y-5017436D02*
X6631968Y-5007912D01*
X6708158Y-5103150D02*
X6708158Y-5236484D01*
X6708158Y-5122198D02*
X6717682Y-5112674D01*
X6717682Y-5112674D02*
X6736730Y-5103150D01*
X6736730Y-5103150D02*
X6765301Y-5103150D01*
X6765301Y-5103150D02*
X6784349Y-5112674D01*
X6784349Y-5112674D02*
X6793872Y-5131722D01*
X6793872Y-5131722D02*
X6793872Y-5236484D01*
X6917682Y-5236484D02*
X6898634Y-5226960D01*
X6898634Y-5226960D02*
X6889111Y-5217436D01*
X6889111Y-5217436D02*
X6879587Y-5198389D01*
X6879587Y-5198389D02*
X6879587Y-5141246D01*
X6879587Y-5141246D02*
X6889111Y-5122198D01*
X6889111Y-5122198D02*
X6898634Y-5112674D01*
X6898634Y-5112674D02*
X6917682Y-5103150D01*
X6917682Y-5103150D02*
X6946253Y-5103150D01*
X6946253Y-5103150D02*
X6965301Y-5112674D01*
X6965301Y-5112674D02*
X6974825Y-5122198D01*
X6974825Y-5122198D02*
X6984349Y-5141246D01*
X6984349Y-5141246D02*
X6984349Y-5198389D01*
X6984349Y-5198389D02*
X6974825Y-5217436D01*
X6974825Y-5217436D02*
X6965301Y-5226960D01*
X6965301Y-5226960D02*
X6946253Y-5236484D01*
X6946253Y-5236484D02*
X6917682Y-5236484D01*
X7041492Y-5103150D02*
X7117682Y-5103150D01*
X7070063Y-5036484D02*
X7070063Y-5207912D01*
X7070063Y-5207912D02*
X7079587Y-5226960D01*
X7079587Y-5226960D02*
X7098634Y-5236484D01*
X7098634Y-5236484D02*
X7117682Y-5236484D01*
X7336730Y-5103150D02*
X7336730Y-5303150D01*
X7336730Y-5112674D02*
X7355777Y-5103150D01*
X7355777Y-5103150D02*
X7393873Y-5103150D01*
X7393873Y-5103150D02*
X7412920Y-5112674D01*
X7412920Y-5112674D02*
X7422444Y-5122198D01*
X7422444Y-5122198D02*
X7431968Y-5141246D01*
X7431968Y-5141246D02*
X7431968Y-5198389D01*
X7431968Y-5198389D02*
X7422444Y-5217436D01*
X7422444Y-5217436D02*
X7412920Y-5226960D01*
X7412920Y-5226960D02*
X7393873Y-5236484D01*
X7393873Y-5236484D02*
X7355777Y-5236484D01*
X7355777Y-5236484D02*
X7336730Y-5226960D01*
X7546253Y-5236484D02*
X7527206Y-5226960D01*
X7527206Y-5226960D02*
X7517682Y-5207912D01*
X7517682Y-5207912D02*
X7517682Y-5036484D01*
X7708158Y-5236484D02*
X7708158Y-5131722D01*
X7708158Y-5131722D02*
X7698634Y-5112674D01*
X7698634Y-5112674D02*
X7679587Y-5103150D01*
X7679587Y-5103150D02*
X7641492Y-5103150D01*
X7641492Y-5103150D02*
X7622444Y-5112674D01*
X7708158Y-5226960D02*
X7689111Y-5236484D01*
X7689111Y-5236484D02*
X7641492Y-5236484D01*
X7641492Y-5236484D02*
X7622444Y-5226960D01*
X7622444Y-5226960D02*
X7612920Y-5207912D01*
X7612920Y-5207912D02*
X7612920Y-5188865D01*
X7612920Y-5188865D02*
X7622444Y-5169817D01*
X7622444Y-5169817D02*
X7641492Y-5160293D01*
X7641492Y-5160293D02*
X7689111Y-5160293D01*
X7689111Y-5160293D02*
X7708158Y-5150770D01*
X7774825Y-5103150D02*
X7851015Y-5103150D01*
X7803396Y-5036484D02*
X7803396Y-5207912D01*
X7803396Y-5207912D02*
X7812920Y-5226960D01*
X7812920Y-5226960D02*
X7831968Y-5236484D01*
X7831968Y-5236484D02*
X7851015Y-5236484D01*
X7993873Y-5226960D02*
X7974825Y-5236484D01*
X7974825Y-5236484D02*
X7936730Y-5236484D01*
X7936730Y-5236484D02*
X7917682Y-5226960D01*
X7917682Y-5226960D02*
X7908158Y-5207912D01*
X7908158Y-5207912D02*
X7908158Y-5131722D01*
X7908158Y-5131722D02*
X7917682Y-5112674D01*
X7917682Y-5112674D02*
X7936730Y-5103150D01*
X7936730Y-5103150D02*
X7974825Y-5103150D01*
X7974825Y-5103150D02*
X7993873Y-5112674D01*
X7993873Y-5112674D02*
X8003396Y-5131722D01*
X8003396Y-5131722D02*
X8003396Y-5150770D01*
X8003396Y-5150770D02*
X7908158Y-5169817D01*
X8174825Y-5236484D02*
X8174825Y-5036484D01*
X8174825Y-5226960D02*
X8155777Y-5236484D01*
X8155777Y-5236484D02*
X8117682Y-5236484D01*
X8117682Y-5236484D02*
X8098634Y-5226960D01*
X8098634Y-5226960D02*
X8089111Y-5217436D01*
X8089111Y-5217436D02*
X8079587Y-5198389D01*
X8079587Y-5198389D02*
X8079587Y-5141246D01*
X8079587Y-5141246D02*
X8089111Y-5122198D01*
X8089111Y-5122198D02*
X8098634Y-5112674D01*
X8098634Y-5112674D02*
X8117682Y-5103150D01*
X8117682Y-5103150D02*
X8155777Y-5103150D01*
X8155777Y-5103150D02*
X8174825Y-5112674D01*
X8251015Y-5312674D02*
X8260539Y-5303150D01*
X8260539Y-5303150D02*
X8279587Y-5274579D01*
X8279587Y-5274579D02*
X8289111Y-5255531D01*
X8289111Y-5255531D02*
X8298634Y-5226960D01*
X8298634Y-5226960D02*
X8308158Y-5179341D01*
X8308158Y-5179341D02*
X8308158Y-5141246D01*
X8308158Y-5141246D02*
X8298634Y-5093627D01*
X8298634Y-5093627D02*
X8289111Y-5065055D01*
X8289111Y-5065055D02*
X8279587Y-5046008D01*
X8279587Y-5046008D02*
X8260539Y-5017436D01*
X8260539Y-5017436D02*
X8251015Y-5007912D01*
M02*
