%TF.GenerationSoftware,KiCad,Pcbnew,7.0.7*%
%TF.CreationDate,2023-12-21T16:20:20-05:00*%
%TF.ProjectId,BDC_ctrl_w_hall_effect_latches,4244435f-6374-4726-9c5f-775f68616c6c,rev?*%
%TF.SameCoordinates,Original*%
%TF.FileFunction,Drillmap*%
%TF.FilePolarity,Positive*%
%FSLAX45Y45*%
G04 Gerber Fmt 4.5, Leading zero omitted, Abs format (unit mm)*
G04 Created by KiCad (PCBNEW 7.0.7) date 2023-12-21 16:20:20*
%MOMM*%
%LPD*%
G01*
G04 APERTURE LIST*
%ADD10C,0.100000*%
%ADD11C,0.200000*%
%ADD12C,0.025000*%
%ADD13C,0.050000*%
%ADD14C,0.075000*%
G04 APERTURE END LIST*
D10*
X2000000Y-1500000D02*
G75*
G03*
X1500000Y-2000000I0J-500000D01*
G01*
X2120000Y-1900000D02*
G75*
G03*
X2120000Y-1900000I-220000J0D01*
G01*
X1500000Y-4000000D02*
X1500000Y-2000000D01*
X2000000Y-1500000D02*
X4000000Y-1500000D01*
X4320000Y-1900000D02*
G75*
G03*
X4320000Y-1900000I-220000J0D01*
G01*
X4500000Y-2000000D02*
G75*
G03*
X4000000Y-1500000I-500000J0D01*
G01*
X4320000Y-4100000D02*
G75*
G03*
X4320000Y-4100000I-220000J0D01*
G01*
X4000000Y-4500000D02*
X2000000Y-4500000D01*
X1500000Y-4000000D02*
G75*
G03*
X2000000Y-4500000I500000J0D01*
G01*
X2120000Y-4100000D02*
G75*
G03*
X2120000Y-4100000I-220000J0D01*
G01*
X4000000Y-4500000D02*
G75*
G03*
X4500000Y-4000000I0J500000D01*
G01*
X4500000Y-2000000D02*
X4500000Y-4000000D01*
D11*
D12*
X4160180Y-2570890D02*
X4185180Y-2595890D01*
X4185180Y-2570890D02*
X4160180Y-2595890D01*
X4260180Y-2570890D02*
X4285180Y-2595890D01*
X4285180Y-2570890D02*
X4260180Y-2595890D01*
D13*
X2874880Y-2169160D02*
G75*
G03*
X2874880Y-2169160I-25000J0D01*
G01*
X2874880Y-2255520D02*
G75*
G03*
X2874880Y-2255520I-25000J0D01*
G01*
X3555600Y-1854200D02*
G75*
G03*
X3555600Y-1854200I-25000J0D01*
G01*
X3581000Y-1940560D02*
G75*
G03*
X3581000Y-1940560I-25000J0D01*
G01*
X3875640Y-2565400D02*
G75*
G03*
X3875640Y-2565400I-25000J0D01*
G01*
D14*
X1667500Y-3254340D02*
X1667500Y-3329340D01*
X1630000Y-3291840D02*
X1705000Y-3291840D01*
X1667500Y-3381340D02*
X1667500Y-3456340D01*
X1630000Y-3418840D02*
X1705000Y-3418840D01*
X1667500Y-3508340D02*
X1667500Y-3583340D01*
X1630000Y-3545840D02*
X1705000Y-3545840D01*
X2030740Y-3252340D02*
X2030740Y-3327340D01*
X1993240Y-3289840D02*
X2068240Y-3289840D01*
X2030740Y-3379340D02*
X2030740Y-3454340D01*
X1993240Y-3416840D02*
X2068240Y-3416840D01*
X2030740Y-3506340D02*
X2030740Y-3581340D01*
X1993240Y-3543840D02*
X2068240Y-3543840D01*
D10*
X1935276Y-2668796D02*
X1935276Y-2598084D01*
X1864564Y-2598084D01*
X1864564Y-2668796D01*
X1935276Y-2668796D01*
X1935276Y-2918796D02*
X1935276Y-2848084D01*
X1864564Y-2848084D01*
X1864564Y-2918796D01*
X1935276Y-2918796D01*
X2827856Y-1737156D02*
X2827856Y-1666444D01*
X2757144Y-1666444D01*
X2757144Y-1737156D01*
X2827856Y-1737156D01*
X3081856Y-1737156D02*
X3081856Y-1666444D01*
X3011144Y-1666444D01*
X3011144Y-1737156D01*
X3081856Y-1737156D01*
X3335856Y-1737156D02*
X3335856Y-1666444D01*
X3265144Y-1666444D01*
X3265144Y-1737156D01*
X3335856Y-1737156D01*
X4133716Y-3103566D02*
X4133716Y-3032854D01*
X4063004Y-3032854D01*
X4063004Y-3103566D01*
X4133716Y-3103566D01*
X4133716Y-3353566D02*
X4133716Y-3282854D01*
X4063004Y-3282854D01*
X4063004Y-3353566D01*
X4133716Y-3353566D01*
D11*
X1755777Y-4816484D02*
X1755777Y-4616484D01*
X1755777Y-4616484D02*
X1803396Y-4616484D01*
X1803396Y-4616484D02*
X1831967Y-4626008D01*
X1831967Y-4626008D02*
X1851015Y-4645055D01*
X1851015Y-4645055D02*
X1860539Y-4664103D01*
X1860539Y-4664103D02*
X1870062Y-4702198D01*
X1870062Y-4702198D02*
X1870062Y-4730770D01*
X1870062Y-4730770D02*
X1860539Y-4768865D01*
X1860539Y-4768865D02*
X1851015Y-4787912D01*
X1851015Y-4787912D02*
X1831967Y-4806960D01*
X1831967Y-4806960D02*
X1803396Y-4816484D01*
X1803396Y-4816484D02*
X1755777Y-4816484D01*
X1955777Y-4816484D02*
X1955777Y-4683150D01*
X1955777Y-4721246D02*
X1965301Y-4702198D01*
X1965301Y-4702198D02*
X1974824Y-4692674D01*
X1974824Y-4692674D02*
X1993872Y-4683150D01*
X1993872Y-4683150D02*
X2012920Y-4683150D01*
X2079586Y-4816484D02*
X2079586Y-4683150D01*
X2079586Y-4616484D02*
X2070062Y-4626008D01*
X2070062Y-4626008D02*
X2079586Y-4635531D01*
X2079586Y-4635531D02*
X2089110Y-4626008D01*
X2089110Y-4626008D02*
X2079586Y-4616484D01*
X2079586Y-4616484D02*
X2079586Y-4635531D01*
X2203396Y-4816484D02*
X2184348Y-4806960D01*
X2184348Y-4806960D02*
X2174824Y-4787912D01*
X2174824Y-4787912D02*
X2174824Y-4616484D01*
X2308158Y-4816484D02*
X2289110Y-4806960D01*
X2289110Y-4806960D02*
X2279586Y-4787912D01*
X2279586Y-4787912D02*
X2279586Y-4616484D01*
X2536729Y-4816484D02*
X2536729Y-4616484D01*
X2536729Y-4616484D02*
X2603396Y-4759341D01*
X2603396Y-4759341D02*
X2670063Y-4616484D01*
X2670063Y-4616484D02*
X2670063Y-4816484D01*
X2851015Y-4816484D02*
X2851015Y-4711722D01*
X2851015Y-4711722D02*
X2841491Y-4692674D01*
X2841491Y-4692674D02*
X2822443Y-4683150D01*
X2822443Y-4683150D02*
X2784348Y-4683150D01*
X2784348Y-4683150D02*
X2765301Y-4692674D01*
X2851015Y-4806960D02*
X2831967Y-4816484D01*
X2831967Y-4816484D02*
X2784348Y-4816484D01*
X2784348Y-4816484D02*
X2765301Y-4806960D01*
X2765301Y-4806960D02*
X2755777Y-4787912D01*
X2755777Y-4787912D02*
X2755777Y-4768865D01*
X2755777Y-4768865D02*
X2765301Y-4749817D01*
X2765301Y-4749817D02*
X2784348Y-4740293D01*
X2784348Y-4740293D02*
X2831967Y-4740293D01*
X2831967Y-4740293D02*
X2851015Y-4730770D01*
X2946253Y-4683150D02*
X2946253Y-4883150D01*
X2946253Y-4692674D02*
X2965301Y-4683150D01*
X2965301Y-4683150D02*
X3003396Y-4683150D01*
X3003396Y-4683150D02*
X3022443Y-4692674D01*
X3022443Y-4692674D02*
X3031967Y-4702198D01*
X3031967Y-4702198D02*
X3041491Y-4721246D01*
X3041491Y-4721246D02*
X3041491Y-4778389D01*
X3041491Y-4778389D02*
X3031967Y-4797436D01*
X3031967Y-4797436D02*
X3022443Y-4806960D01*
X3022443Y-4806960D02*
X3003396Y-4816484D01*
X3003396Y-4816484D02*
X2965301Y-4816484D01*
X2965301Y-4816484D02*
X2946253Y-4806960D01*
X3127205Y-4797436D02*
X3136729Y-4806960D01*
X3136729Y-4806960D02*
X3127205Y-4816484D01*
X3127205Y-4816484D02*
X3117682Y-4806960D01*
X3117682Y-4806960D02*
X3127205Y-4797436D01*
X3127205Y-4797436D02*
X3127205Y-4816484D01*
X3127205Y-4692674D02*
X3136729Y-4702198D01*
X3136729Y-4702198D02*
X3127205Y-4711722D01*
X3127205Y-4711722D02*
X3117682Y-4702198D01*
X3117682Y-4702198D02*
X3127205Y-4692674D01*
X3127205Y-4692674D02*
X3127205Y-4711722D01*
D12*
X1470000Y-5132500D02*
X1495000Y-5157500D01*
X1495000Y-5132500D02*
X1470000Y-5157500D01*
D11*
X1793872Y-5036484D02*
X1812920Y-5036484D01*
X1812920Y-5036484D02*
X1831967Y-5046008D01*
X1831967Y-5046008D02*
X1841491Y-5055531D01*
X1841491Y-5055531D02*
X1851015Y-5074579D01*
X1851015Y-5074579D02*
X1860539Y-5112674D01*
X1860539Y-5112674D02*
X1860539Y-5160293D01*
X1860539Y-5160293D02*
X1851015Y-5198389D01*
X1851015Y-5198389D02*
X1841491Y-5217436D01*
X1841491Y-5217436D02*
X1831967Y-5226960D01*
X1831967Y-5226960D02*
X1812920Y-5236484D01*
X1812920Y-5236484D02*
X1793872Y-5236484D01*
X1793872Y-5236484D02*
X1774824Y-5226960D01*
X1774824Y-5226960D02*
X1765301Y-5217436D01*
X1765301Y-5217436D02*
X1755777Y-5198389D01*
X1755777Y-5198389D02*
X1746253Y-5160293D01*
X1746253Y-5160293D02*
X1746253Y-5112674D01*
X1746253Y-5112674D02*
X1755777Y-5074579D01*
X1755777Y-5074579D02*
X1765301Y-5055531D01*
X1765301Y-5055531D02*
X1774824Y-5046008D01*
X1774824Y-5046008D02*
X1793872Y-5036484D01*
X1946253Y-5217436D02*
X1955777Y-5226960D01*
X1955777Y-5226960D02*
X1946253Y-5236484D01*
X1946253Y-5236484D02*
X1936729Y-5226960D01*
X1936729Y-5226960D02*
X1946253Y-5217436D01*
X1946253Y-5217436D02*
X1946253Y-5236484D01*
X2031967Y-5055531D02*
X2041491Y-5046008D01*
X2041491Y-5046008D02*
X2060539Y-5036484D01*
X2060539Y-5036484D02*
X2108158Y-5036484D01*
X2108158Y-5036484D02*
X2127205Y-5046008D01*
X2127205Y-5046008D02*
X2136729Y-5055531D01*
X2136729Y-5055531D02*
X2146253Y-5074579D01*
X2146253Y-5074579D02*
X2146253Y-5093627D01*
X2146253Y-5093627D02*
X2136729Y-5122198D01*
X2136729Y-5122198D02*
X2022443Y-5236484D01*
X2022443Y-5236484D02*
X2146253Y-5236484D01*
X2327205Y-5036484D02*
X2231967Y-5036484D01*
X2231967Y-5036484D02*
X2222444Y-5131722D01*
X2222444Y-5131722D02*
X2231967Y-5122198D01*
X2231967Y-5122198D02*
X2251015Y-5112674D01*
X2251015Y-5112674D02*
X2298634Y-5112674D01*
X2298634Y-5112674D02*
X2317682Y-5122198D01*
X2317682Y-5122198D02*
X2327205Y-5131722D01*
X2327205Y-5131722D02*
X2336729Y-5150770D01*
X2336729Y-5150770D02*
X2336729Y-5198389D01*
X2336729Y-5198389D02*
X2327205Y-5217436D01*
X2327205Y-5217436D02*
X2317682Y-5226960D01*
X2317682Y-5226960D02*
X2298634Y-5236484D01*
X2298634Y-5236484D02*
X2251015Y-5236484D01*
X2251015Y-5236484D02*
X2231967Y-5226960D01*
X2231967Y-5226960D02*
X2222444Y-5217436D01*
X2460539Y-5036484D02*
X2479586Y-5036484D01*
X2479586Y-5036484D02*
X2498634Y-5046008D01*
X2498634Y-5046008D02*
X2508158Y-5055531D01*
X2508158Y-5055531D02*
X2517682Y-5074579D01*
X2517682Y-5074579D02*
X2527205Y-5112674D01*
X2527205Y-5112674D02*
X2527205Y-5160293D01*
X2527205Y-5160293D02*
X2517682Y-5198389D01*
X2517682Y-5198389D02*
X2508158Y-5217436D01*
X2508158Y-5217436D02*
X2498634Y-5226960D01*
X2498634Y-5226960D02*
X2479586Y-5236484D01*
X2479586Y-5236484D02*
X2460539Y-5236484D01*
X2460539Y-5236484D02*
X2441491Y-5226960D01*
X2441491Y-5226960D02*
X2431967Y-5217436D01*
X2431967Y-5217436D02*
X2422444Y-5198389D01*
X2422444Y-5198389D02*
X2412920Y-5160293D01*
X2412920Y-5160293D02*
X2412920Y-5112674D01*
X2412920Y-5112674D02*
X2422444Y-5074579D01*
X2422444Y-5074579D02*
X2431967Y-5055531D01*
X2431967Y-5055531D02*
X2441491Y-5046008D01*
X2441491Y-5046008D02*
X2460539Y-5036484D01*
X2612920Y-5236484D02*
X2612920Y-5103150D01*
X2612920Y-5122198D02*
X2622444Y-5112674D01*
X2622444Y-5112674D02*
X2641491Y-5103150D01*
X2641491Y-5103150D02*
X2670063Y-5103150D01*
X2670063Y-5103150D02*
X2689110Y-5112674D01*
X2689110Y-5112674D02*
X2698634Y-5131722D01*
X2698634Y-5131722D02*
X2698634Y-5236484D01*
X2698634Y-5131722D02*
X2708158Y-5112674D01*
X2708158Y-5112674D02*
X2727205Y-5103150D01*
X2727205Y-5103150D02*
X2755777Y-5103150D01*
X2755777Y-5103150D02*
X2774825Y-5112674D01*
X2774825Y-5112674D02*
X2784348Y-5131722D01*
X2784348Y-5131722D02*
X2784348Y-5236484D01*
X2879586Y-5236484D02*
X2879586Y-5103150D01*
X2879586Y-5122198D02*
X2889110Y-5112674D01*
X2889110Y-5112674D02*
X2908158Y-5103150D01*
X2908158Y-5103150D02*
X2936729Y-5103150D01*
X2936729Y-5103150D02*
X2955777Y-5112674D01*
X2955777Y-5112674D02*
X2965301Y-5131722D01*
X2965301Y-5131722D02*
X2965301Y-5236484D01*
X2965301Y-5131722D02*
X2974824Y-5112674D01*
X2974824Y-5112674D02*
X2993872Y-5103150D01*
X2993872Y-5103150D02*
X3022443Y-5103150D01*
X3022443Y-5103150D02*
X3041491Y-5112674D01*
X3041491Y-5112674D02*
X3051015Y-5131722D01*
X3051015Y-5131722D02*
X3051015Y-5236484D01*
X3441491Y-5026960D02*
X3270063Y-5284103D01*
X3698634Y-5036484D02*
X3717682Y-5036484D01*
X3717682Y-5036484D02*
X3736729Y-5046008D01*
X3736729Y-5046008D02*
X3746253Y-5055531D01*
X3746253Y-5055531D02*
X3755777Y-5074579D01*
X3755777Y-5074579D02*
X3765301Y-5112674D01*
X3765301Y-5112674D02*
X3765301Y-5160293D01*
X3765301Y-5160293D02*
X3755777Y-5198389D01*
X3755777Y-5198389D02*
X3746253Y-5217436D01*
X3746253Y-5217436D02*
X3736729Y-5226960D01*
X3736729Y-5226960D02*
X3717682Y-5236484D01*
X3717682Y-5236484D02*
X3698634Y-5236484D01*
X3698634Y-5236484D02*
X3679586Y-5226960D01*
X3679586Y-5226960D02*
X3670063Y-5217436D01*
X3670063Y-5217436D02*
X3660539Y-5198389D01*
X3660539Y-5198389D02*
X3651015Y-5160293D01*
X3651015Y-5160293D02*
X3651015Y-5112674D01*
X3651015Y-5112674D02*
X3660539Y-5074579D01*
X3660539Y-5074579D02*
X3670063Y-5055531D01*
X3670063Y-5055531D02*
X3679586Y-5046008D01*
X3679586Y-5046008D02*
X3698634Y-5036484D01*
X3851015Y-5217436D02*
X3860539Y-5226960D01*
X3860539Y-5226960D02*
X3851015Y-5236484D01*
X3851015Y-5236484D02*
X3841491Y-5226960D01*
X3841491Y-5226960D02*
X3851015Y-5217436D01*
X3851015Y-5217436D02*
X3851015Y-5236484D01*
X3984348Y-5036484D02*
X4003396Y-5036484D01*
X4003396Y-5036484D02*
X4022444Y-5046008D01*
X4022444Y-5046008D02*
X4031967Y-5055531D01*
X4031967Y-5055531D02*
X4041491Y-5074579D01*
X4041491Y-5074579D02*
X4051015Y-5112674D01*
X4051015Y-5112674D02*
X4051015Y-5160293D01*
X4051015Y-5160293D02*
X4041491Y-5198389D01*
X4041491Y-5198389D02*
X4031967Y-5217436D01*
X4031967Y-5217436D02*
X4022444Y-5226960D01*
X4022444Y-5226960D02*
X4003396Y-5236484D01*
X4003396Y-5236484D02*
X3984348Y-5236484D01*
X3984348Y-5236484D02*
X3965301Y-5226960D01*
X3965301Y-5226960D02*
X3955777Y-5217436D01*
X3955777Y-5217436D02*
X3946253Y-5198389D01*
X3946253Y-5198389D02*
X3936729Y-5160293D01*
X3936729Y-5160293D02*
X3936729Y-5112674D01*
X3936729Y-5112674D02*
X3946253Y-5074579D01*
X3946253Y-5074579D02*
X3955777Y-5055531D01*
X3955777Y-5055531D02*
X3965301Y-5046008D01*
X3965301Y-5046008D02*
X3984348Y-5036484D01*
X4174825Y-5036484D02*
X4193872Y-5036484D01*
X4193872Y-5036484D02*
X4212920Y-5046008D01*
X4212920Y-5046008D02*
X4222444Y-5055531D01*
X4222444Y-5055531D02*
X4231968Y-5074579D01*
X4231968Y-5074579D02*
X4241491Y-5112674D01*
X4241491Y-5112674D02*
X4241491Y-5160293D01*
X4241491Y-5160293D02*
X4231968Y-5198389D01*
X4231968Y-5198389D02*
X4222444Y-5217436D01*
X4222444Y-5217436D02*
X4212920Y-5226960D01*
X4212920Y-5226960D02*
X4193872Y-5236484D01*
X4193872Y-5236484D02*
X4174825Y-5236484D01*
X4174825Y-5236484D02*
X4155777Y-5226960D01*
X4155777Y-5226960D02*
X4146253Y-5217436D01*
X4146253Y-5217436D02*
X4136729Y-5198389D01*
X4136729Y-5198389D02*
X4127206Y-5160293D01*
X4127206Y-5160293D02*
X4127206Y-5112674D01*
X4127206Y-5112674D02*
X4136729Y-5074579D01*
X4136729Y-5074579D02*
X4146253Y-5055531D01*
X4146253Y-5055531D02*
X4155777Y-5046008D01*
X4155777Y-5046008D02*
X4174825Y-5036484D01*
X4336729Y-5236484D02*
X4374825Y-5236484D01*
X4374825Y-5236484D02*
X4393872Y-5226960D01*
X4393872Y-5226960D02*
X4403396Y-5217436D01*
X4403396Y-5217436D02*
X4422444Y-5188865D01*
X4422444Y-5188865D02*
X4431968Y-5150770D01*
X4431968Y-5150770D02*
X4431968Y-5074579D01*
X4431968Y-5074579D02*
X4422444Y-5055531D01*
X4422444Y-5055531D02*
X4412920Y-5046008D01*
X4412920Y-5046008D02*
X4393872Y-5036484D01*
X4393872Y-5036484D02*
X4355777Y-5036484D01*
X4355777Y-5036484D02*
X4336729Y-5046008D01*
X4336729Y-5046008D02*
X4327206Y-5055531D01*
X4327206Y-5055531D02*
X4317682Y-5074579D01*
X4317682Y-5074579D02*
X4317682Y-5122198D01*
X4317682Y-5122198D02*
X4327206Y-5141246D01*
X4327206Y-5141246D02*
X4336729Y-5150770D01*
X4336729Y-5150770D02*
X4355777Y-5160293D01*
X4355777Y-5160293D02*
X4393872Y-5160293D01*
X4393872Y-5160293D02*
X4412920Y-5150770D01*
X4412920Y-5150770D02*
X4422444Y-5141246D01*
X4422444Y-5141246D02*
X4431968Y-5122198D01*
X4546253Y-5122198D02*
X4527206Y-5112674D01*
X4527206Y-5112674D02*
X4517682Y-5103150D01*
X4517682Y-5103150D02*
X4508158Y-5084103D01*
X4508158Y-5084103D02*
X4508158Y-5074579D01*
X4508158Y-5074579D02*
X4517682Y-5055531D01*
X4517682Y-5055531D02*
X4527206Y-5046008D01*
X4527206Y-5046008D02*
X4546253Y-5036484D01*
X4546253Y-5036484D02*
X4584349Y-5036484D01*
X4584349Y-5036484D02*
X4603396Y-5046008D01*
X4603396Y-5046008D02*
X4612920Y-5055531D01*
X4612920Y-5055531D02*
X4622444Y-5074579D01*
X4622444Y-5074579D02*
X4622444Y-5084103D01*
X4622444Y-5084103D02*
X4612920Y-5103150D01*
X4612920Y-5103150D02*
X4603396Y-5112674D01*
X4603396Y-5112674D02*
X4584349Y-5122198D01*
X4584349Y-5122198D02*
X4546253Y-5122198D01*
X4546253Y-5122198D02*
X4527206Y-5131722D01*
X4527206Y-5131722D02*
X4517682Y-5141246D01*
X4517682Y-5141246D02*
X4508158Y-5160293D01*
X4508158Y-5160293D02*
X4508158Y-5198389D01*
X4508158Y-5198389D02*
X4517682Y-5217436D01*
X4517682Y-5217436D02*
X4527206Y-5226960D01*
X4527206Y-5226960D02*
X4546253Y-5236484D01*
X4546253Y-5236484D02*
X4584349Y-5236484D01*
X4584349Y-5236484D02*
X4603396Y-5226960D01*
X4603396Y-5226960D02*
X4612920Y-5217436D01*
X4612920Y-5217436D02*
X4622444Y-5198389D01*
X4622444Y-5198389D02*
X4622444Y-5160293D01*
X4622444Y-5160293D02*
X4612920Y-5141246D01*
X4612920Y-5141246D02*
X4603396Y-5131722D01*
X4603396Y-5131722D02*
X4584349Y-5122198D01*
X4698634Y-5036484D02*
X4698634Y-5074579D01*
X4774825Y-5036484D02*
X4774825Y-5074579D01*
X5070063Y-5312674D02*
X5060539Y-5303150D01*
X5060539Y-5303150D02*
X5041491Y-5274579D01*
X5041491Y-5274579D02*
X5031968Y-5255531D01*
X5031968Y-5255531D02*
X5022444Y-5226960D01*
X5022444Y-5226960D02*
X5012920Y-5179341D01*
X5012920Y-5179341D02*
X5012920Y-5141246D01*
X5012920Y-5141246D02*
X5022444Y-5093627D01*
X5022444Y-5093627D02*
X5031968Y-5065055D01*
X5031968Y-5065055D02*
X5041491Y-5046008D01*
X5041491Y-5046008D02*
X5060539Y-5017436D01*
X5060539Y-5017436D02*
X5070063Y-5007912D01*
X5136730Y-5055531D02*
X5146253Y-5046008D01*
X5146253Y-5046008D02*
X5165301Y-5036484D01*
X5165301Y-5036484D02*
X5212920Y-5036484D01*
X5212920Y-5036484D02*
X5231968Y-5046008D01*
X5231968Y-5046008D02*
X5241491Y-5055531D01*
X5241491Y-5055531D02*
X5251015Y-5074579D01*
X5251015Y-5074579D02*
X5251015Y-5093627D01*
X5251015Y-5093627D02*
X5241491Y-5122198D01*
X5241491Y-5122198D02*
X5127206Y-5236484D01*
X5127206Y-5236484D02*
X5251015Y-5236484D01*
X5489111Y-5236484D02*
X5489111Y-5036484D01*
X5574825Y-5236484D02*
X5574825Y-5131722D01*
X5574825Y-5131722D02*
X5565301Y-5112674D01*
X5565301Y-5112674D02*
X5546253Y-5103150D01*
X5546253Y-5103150D02*
X5517682Y-5103150D01*
X5517682Y-5103150D02*
X5498634Y-5112674D01*
X5498634Y-5112674D02*
X5489111Y-5122198D01*
X5698634Y-5236484D02*
X5679587Y-5226960D01*
X5679587Y-5226960D02*
X5670063Y-5217436D01*
X5670063Y-5217436D02*
X5660539Y-5198389D01*
X5660539Y-5198389D02*
X5660539Y-5141246D01*
X5660539Y-5141246D02*
X5670063Y-5122198D01*
X5670063Y-5122198D02*
X5679587Y-5112674D01*
X5679587Y-5112674D02*
X5698634Y-5103150D01*
X5698634Y-5103150D02*
X5727206Y-5103150D01*
X5727206Y-5103150D02*
X5746253Y-5112674D01*
X5746253Y-5112674D02*
X5755777Y-5122198D01*
X5755777Y-5122198D02*
X5765301Y-5141246D01*
X5765301Y-5141246D02*
X5765301Y-5198389D01*
X5765301Y-5198389D02*
X5755777Y-5217436D01*
X5755777Y-5217436D02*
X5746253Y-5226960D01*
X5746253Y-5226960D02*
X5727206Y-5236484D01*
X5727206Y-5236484D02*
X5698634Y-5236484D01*
X5879587Y-5236484D02*
X5860539Y-5226960D01*
X5860539Y-5226960D02*
X5851015Y-5207912D01*
X5851015Y-5207912D02*
X5851015Y-5036484D01*
X6031968Y-5226960D02*
X6012920Y-5236484D01*
X6012920Y-5236484D02*
X5974825Y-5236484D01*
X5974825Y-5236484D02*
X5955777Y-5226960D01*
X5955777Y-5226960D02*
X5946253Y-5207912D01*
X5946253Y-5207912D02*
X5946253Y-5131722D01*
X5946253Y-5131722D02*
X5955777Y-5112674D01*
X5955777Y-5112674D02*
X5974825Y-5103150D01*
X5974825Y-5103150D02*
X6012920Y-5103150D01*
X6012920Y-5103150D02*
X6031968Y-5112674D01*
X6031968Y-5112674D02*
X6041491Y-5131722D01*
X6041491Y-5131722D02*
X6041491Y-5150770D01*
X6041491Y-5150770D02*
X5946253Y-5169817D01*
X6117682Y-5226960D02*
X6136730Y-5236484D01*
X6136730Y-5236484D02*
X6174825Y-5236484D01*
X6174825Y-5236484D02*
X6193872Y-5226960D01*
X6193872Y-5226960D02*
X6203396Y-5207912D01*
X6203396Y-5207912D02*
X6203396Y-5198389D01*
X6203396Y-5198389D02*
X6193872Y-5179341D01*
X6193872Y-5179341D02*
X6174825Y-5169817D01*
X6174825Y-5169817D02*
X6146253Y-5169817D01*
X6146253Y-5169817D02*
X6127206Y-5160293D01*
X6127206Y-5160293D02*
X6117682Y-5141246D01*
X6117682Y-5141246D02*
X6117682Y-5131722D01*
X6117682Y-5131722D02*
X6127206Y-5112674D01*
X6127206Y-5112674D02*
X6146253Y-5103150D01*
X6146253Y-5103150D02*
X6174825Y-5103150D01*
X6174825Y-5103150D02*
X6193872Y-5112674D01*
X6270063Y-5312674D02*
X6279587Y-5303150D01*
X6279587Y-5303150D02*
X6298634Y-5274579D01*
X6298634Y-5274579D02*
X6308158Y-5255531D01*
X6308158Y-5255531D02*
X6317682Y-5226960D01*
X6317682Y-5226960D02*
X6327206Y-5179341D01*
X6327206Y-5179341D02*
X6327206Y-5141246D01*
X6327206Y-5141246D02*
X6317682Y-5093627D01*
X6317682Y-5093627D02*
X6308158Y-5065055D01*
X6308158Y-5065055D02*
X6298634Y-5046008D01*
X6298634Y-5046008D02*
X6279587Y-5017436D01*
X6279587Y-5017436D02*
X6270063Y-5007912D01*
D13*
X1495000Y-5409000D02*
G75*
G03*
X1495000Y-5409000I-25000J0D01*
G01*
D11*
X1793872Y-5300484D02*
X1812920Y-5300484D01*
X1812920Y-5300484D02*
X1831967Y-5310008D01*
X1831967Y-5310008D02*
X1841491Y-5319531D01*
X1841491Y-5319531D02*
X1851015Y-5338579D01*
X1851015Y-5338579D02*
X1860539Y-5376674D01*
X1860539Y-5376674D02*
X1860539Y-5424293D01*
X1860539Y-5424293D02*
X1851015Y-5462389D01*
X1851015Y-5462389D02*
X1841491Y-5481436D01*
X1841491Y-5481436D02*
X1831967Y-5490960D01*
X1831967Y-5490960D02*
X1812920Y-5500484D01*
X1812920Y-5500484D02*
X1793872Y-5500484D01*
X1793872Y-5500484D02*
X1774824Y-5490960D01*
X1774824Y-5490960D02*
X1765301Y-5481436D01*
X1765301Y-5481436D02*
X1755777Y-5462389D01*
X1755777Y-5462389D02*
X1746253Y-5424293D01*
X1746253Y-5424293D02*
X1746253Y-5376674D01*
X1746253Y-5376674D02*
X1755777Y-5338579D01*
X1755777Y-5338579D02*
X1765301Y-5319531D01*
X1765301Y-5319531D02*
X1774824Y-5310008D01*
X1774824Y-5310008D02*
X1793872Y-5300484D01*
X1946253Y-5481436D02*
X1955777Y-5490960D01*
X1955777Y-5490960D02*
X1946253Y-5500484D01*
X1946253Y-5500484D02*
X1936729Y-5490960D01*
X1936729Y-5490960D02*
X1946253Y-5481436D01*
X1946253Y-5481436D02*
X1946253Y-5500484D01*
X2136729Y-5300484D02*
X2041491Y-5300484D01*
X2041491Y-5300484D02*
X2031967Y-5395722D01*
X2031967Y-5395722D02*
X2041491Y-5386198D01*
X2041491Y-5386198D02*
X2060539Y-5376674D01*
X2060539Y-5376674D02*
X2108158Y-5376674D01*
X2108158Y-5376674D02*
X2127205Y-5386198D01*
X2127205Y-5386198D02*
X2136729Y-5395722D01*
X2136729Y-5395722D02*
X2146253Y-5414770D01*
X2146253Y-5414770D02*
X2146253Y-5462389D01*
X2146253Y-5462389D02*
X2136729Y-5481436D01*
X2136729Y-5481436D02*
X2127205Y-5490960D01*
X2127205Y-5490960D02*
X2108158Y-5500484D01*
X2108158Y-5500484D02*
X2060539Y-5500484D01*
X2060539Y-5500484D02*
X2041491Y-5490960D01*
X2041491Y-5490960D02*
X2031967Y-5481436D01*
X2270063Y-5300484D02*
X2289110Y-5300484D01*
X2289110Y-5300484D02*
X2308158Y-5310008D01*
X2308158Y-5310008D02*
X2317682Y-5319531D01*
X2317682Y-5319531D02*
X2327205Y-5338579D01*
X2327205Y-5338579D02*
X2336729Y-5376674D01*
X2336729Y-5376674D02*
X2336729Y-5424293D01*
X2336729Y-5424293D02*
X2327205Y-5462389D01*
X2327205Y-5462389D02*
X2317682Y-5481436D01*
X2317682Y-5481436D02*
X2308158Y-5490960D01*
X2308158Y-5490960D02*
X2289110Y-5500484D01*
X2289110Y-5500484D02*
X2270063Y-5500484D01*
X2270063Y-5500484D02*
X2251015Y-5490960D01*
X2251015Y-5490960D02*
X2241491Y-5481436D01*
X2241491Y-5481436D02*
X2231967Y-5462389D01*
X2231967Y-5462389D02*
X2222444Y-5424293D01*
X2222444Y-5424293D02*
X2222444Y-5376674D01*
X2222444Y-5376674D02*
X2231967Y-5338579D01*
X2231967Y-5338579D02*
X2241491Y-5319531D01*
X2241491Y-5319531D02*
X2251015Y-5310008D01*
X2251015Y-5310008D02*
X2270063Y-5300484D01*
X2460539Y-5300484D02*
X2479586Y-5300484D01*
X2479586Y-5300484D02*
X2498634Y-5310008D01*
X2498634Y-5310008D02*
X2508158Y-5319531D01*
X2508158Y-5319531D02*
X2517682Y-5338579D01*
X2517682Y-5338579D02*
X2527205Y-5376674D01*
X2527205Y-5376674D02*
X2527205Y-5424293D01*
X2527205Y-5424293D02*
X2517682Y-5462389D01*
X2517682Y-5462389D02*
X2508158Y-5481436D01*
X2508158Y-5481436D02*
X2498634Y-5490960D01*
X2498634Y-5490960D02*
X2479586Y-5500484D01*
X2479586Y-5500484D02*
X2460539Y-5500484D01*
X2460539Y-5500484D02*
X2441491Y-5490960D01*
X2441491Y-5490960D02*
X2431967Y-5481436D01*
X2431967Y-5481436D02*
X2422444Y-5462389D01*
X2422444Y-5462389D02*
X2412920Y-5424293D01*
X2412920Y-5424293D02*
X2412920Y-5376674D01*
X2412920Y-5376674D02*
X2422444Y-5338579D01*
X2422444Y-5338579D02*
X2431967Y-5319531D01*
X2431967Y-5319531D02*
X2441491Y-5310008D01*
X2441491Y-5310008D02*
X2460539Y-5300484D01*
X2612920Y-5500484D02*
X2612920Y-5367150D01*
X2612920Y-5386198D02*
X2622444Y-5376674D01*
X2622444Y-5376674D02*
X2641491Y-5367150D01*
X2641491Y-5367150D02*
X2670063Y-5367150D01*
X2670063Y-5367150D02*
X2689110Y-5376674D01*
X2689110Y-5376674D02*
X2698634Y-5395722D01*
X2698634Y-5395722D02*
X2698634Y-5500484D01*
X2698634Y-5395722D02*
X2708158Y-5376674D01*
X2708158Y-5376674D02*
X2727205Y-5367150D01*
X2727205Y-5367150D02*
X2755777Y-5367150D01*
X2755777Y-5367150D02*
X2774825Y-5376674D01*
X2774825Y-5376674D02*
X2784348Y-5395722D01*
X2784348Y-5395722D02*
X2784348Y-5500484D01*
X2879586Y-5500484D02*
X2879586Y-5367150D01*
X2879586Y-5386198D02*
X2889110Y-5376674D01*
X2889110Y-5376674D02*
X2908158Y-5367150D01*
X2908158Y-5367150D02*
X2936729Y-5367150D01*
X2936729Y-5367150D02*
X2955777Y-5376674D01*
X2955777Y-5376674D02*
X2965301Y-5395722D01*
X2965301Y-5395722D02*
X2965301Y-5500484D01*
X2965301Y-5395722D02*
X2974824Y-5376674D01*
X2974824Y-5376674D02*
X2993872Y-5367150D01*
X2993872Y-5367150D02*
X3022443Y-5367150D01*
X3022443Y-5367150D02*
X3041491Y-5376674D01*
X3041491Y-5376674D02*
X3051015Y-5395722D01*
X3051015Y-5395722D02*
X3051015Y-5500484D01*
X3441491Y-5290960D02*
X3270063Y-5548103D01*
X3698634Y-5300484D02*
X3717682Y-5300484D01*
X3717682Y-5300484D02*
X3736729Y-5310008D01*
X3736729Y-5310008D02*
X3746253Y-5319531D01*
X3746253Y-5319531D02*
X3755777Y-5338579D01*
X3755777Y-5338579D02*
X3765301Y-5376674D01*
X3765301Y-5376674D02*
X3765301Y-5424293D01*
X3765301Y-5424293D02*
X3755777Y-5462389D01*
X3755777Y-5462389D02*
X3746253Y-5481436D01*
X3746253Y-5481436D02*
X3736729Y-5490960D01*
X3736729Y-5490960D02*
X3717682Y-5500484D01*
X3717682Y-5500484D02*
X3698634Y-5500484D01*
X3698634Y-5500484D02*
X3679586Y-5490960D01*
X3679586Y-5490960D02*
X3670063Y-5481436D01*
X3670063Y-5481436D02*
X3660539Y-5462389D01*
X3660539Y-5462389D02*
X3651015Y-5424293D01*
X3651015Y-5424293D02*
X3651015Y-5376674D01*
X3651015Y-5376674D02*
X3660539Y-5338579D01*
X3660539Y-5338579D02*
X3670063Y-5319531D01*
X3670063Y-5319531D02*
X3679586Y-5310008D01*
X3679586Y-5310008D02*
X3698634Y-5300484D01*
X3851015Y-5481436D02*
X3860539Y-5490960D01*
X3860539Y-5490960D02*
X3851015Y-5500484D01*
X3851015Y-5500484D02*
X3841491Y-5490960D01*
X3841491Y-5490960D02*
X3851015Y-5481436D01*
X3851015Y-5481436D02*
X3851015Y-5500484D01*
X3984348Y-5300484D02*
X4003396Y-5300484D01*
X4003396Y-5300484D02*
X4022444Y-5310008D01*
X4022444Y-5310008D02*
X4031967Y-5319531D01*
X4031967Y-5319531D02*
X4041491Y-5338579D01*
X4041491Y-5338579D02*
X4051015Y-5376674D01*
X4051015Y-5376674D02*
X4051015Y-5424293D01*
X4051015Y-5424293D02*
X4041491Y-5462389D01*
X4041491Y-5462389D02*
X4031967Y-5481436D01*
X4031967Y-5481436D02*
X4022444Y-5490960D01*
X4022444Y-5490960D02*
X4003396Y-5500484D01*
X4003396Y-5500484D02*
X3984348Y-5500484D01*
X3984348Y-5500484D02*
X3965301Y-5490960D01*
X3965301Y-5490960D02*
X3955777Y-5481436D01*
X3955777Y-5481436D02*
X3946253Y-5462389D01*
X3946253Y-5462389D02*
X3936729Y-5424293D01*
X3936729Y-5424293D02*
X3936729Y-5376674D01*
X3936729Y-5376674D02*
X3946253Y-5338579D01*
X3946253Y-5338579D02*
X3955777Y-5319531D01*
X3955777Y-5319531D02*
X3965301Y-5310008D01*
X3965301Y-5310008D02*
X3984348Y-5300484D01*
X4241491Y-5500484D02*
X4127206Y-5500484D01*
X4184348Y-5500484D02*
X4184348Y-5300484D01*
X4184348Y-5300484D02*
X4165301Y-5329055D01*
X4165301Y-5329055D02*
X4146253Y-5348103D01*
X4146253Y-5348103D02*
X4127206Y-5357627D01*
X4336729Y-5500484D02*
X4374825Y-5500484D01*
X4374825Y-5500484D02*
X4393872Y-5490960D01*
X4393872Y-5490960D02*
X4403396Y-5481436D01*
X4403396Y-5481436D02*
X4422444Y-5452865D01*
X4422444Y-5452865D02*
X4431968Y-5414770D01*
X4431968Y-5414770D02*
X4431968Y-5338579D01*
X4431968Y-5338579D02*
X4422444Y-5319531D01*
X4422444Y-5319531D02*
X4412920Y-5310008D01*
X4412920Y-5310008D02*
X4393872Y-5300484D01*
X4393872Y-5300484D02*
X4355777Y-5300484D01*
X4355777Y-5300484D02*
X4336729Y-5310008D01*
X4336729Y-5310008D02*
X4327206Y-5319531D01*
X4327206Y-5319531D02*
X4317682Y-5338579D01*
X4317682Y-5338579D02*
X4317682Y-5386198D01*
X4317682Y-5386198D02*
X4327206Y-5405246D01*
X4327206Y-5405246D02*
X4336729Y-5414770D01*
X4336729Y-5414770D02*
X4355777Y-5424293D01*
X4355777Y-5424293D02*
X4393872Y-5424293D01*
X4393872Y-5424293D02*
X4412920Y-5414770D01*
X4412920Y-5414770D02*
X4422444Y-5405246D01*
X4422444Y-5405246D02*
X4431968Y-5386198D01*
X4498634Y-5300484D02*
X4631968Y-5300484D01*
X4631968Y-5300484D02*
X4546253Y-5500484D01*
X4698634Y-5300484D02*
X4698634Y-5338579D01*
X4774825Y-5300484D02*
X4774825Y-5338579D01*
X5070063Y-5576674D02*
X5060539Y-5567150D01*
X5060539Y-5567150D02*
X5041491Y-5538579D01*
X5041491Y-5538579D02*
X5031968Y-5519531D01*
X5031968Y-5519531D02*
X5022444Y-5490960D01*
X5022444Y-5490960D02*
X5012920Y-5443341D01*
X5012920Y-5443341D02*
X5012920Y-5405246D01*
X5012920Y-5405246D02*
X5022444Y-5357627D01*
X5022444Y-5357627D02*
X5031968Y-5329055D01*
X5031968Y-5329055D02*
X5041491Y-5310008D01*
X5041491Y-5310008D02*
X5060539Y-5281436D01*
X5060539Y-5281436D02*
X5070063Y-5271912D01*
X5241491Y-5300484D02*
X5146253Y-5300484D01*
X5146253Y-5300484D02*
X5136730Y-5395722D01*
X5136730Y-5395722D02*
X5146253Y-5386198D01*
X5146253Y-5386198D02*
X5165301Y-5376674D01*
X5165301Y-5376674D02*
X5212920Y-5376674D01*
X5212920Y-5376674D02*
X5231968Y-5386198D01*
X5231968Y-5386198D02*
X5241491Y-5395722D01*
X5241491Y-5395722D02*
X5251015Y-5414770D01*
X5251015Y-5414770D02*
X5251015Y-5462389D01*
X5251015Y-5462389D02*
X5241491Y-5481436D01*
X5241491Y-5481436D02*
X5231968Y-5490960D01*
X5231968Y-5490960D02*
X5212920Y-5500484D01*
X5212920Y-5500484D02*
X5165301Y-5500484D01*
X5165301Y-5500484D02*
X5146253Y-5490960D01*
X5146253Y-5490960D02*
X5136730Y-5481436D01*
X5489111Y-5500484D02*
X5489111Y-5300484D01*
X5574825Y-5500484D02*
X5574825Y-5395722D01*
X5574825Y-5395722D02*
X5565301Y-5376674D01*
X5565301Y-5376674D02*
X5546253Y-5367150D01*
X5546253Y-5367150D02*
X5517682Y-5367150D01*
X5517682Y-5367150D02*
X5498634Y-5376674D01*
X5498634Y-5376674D02*
X5489111Y-5386198D01*
X5698634Y-5500484D02*
X5679587Y-5490960D01*
X5679587Y-5490960D02*
X5670063Y-5481436D01*
X5670063Y-5481436D02*
X5660539Y-5462389D01*
X5660539Y-5462389D02*
X5660539Y-5405246D01*
X5660539Y-5405246D02*
X5670063Y-5386198D01*
X5670063Y-5386198D02*
X5679587Y-5376674D01*
X5679587Y-5376674D02*
X5698634Y-5367150D01*
X5698634Y-5367150D02*
X5727206Y-5367150D01*
X5727206Y-5367150D02*
X5746253Y-5376674D01*
X5746253Y-5376674D02*
X5755777Y-5386198D01*
X5755777Y-5386198D02*
X5765301Y-5405246D01*
X5765301Y-5405246D02*
X5765301Y-5462389D01*
X5765301Y-5462389D02*
X5755777Y-5481436D01*
X5755777Y-5481436D02*
X5746253Y-5490960D01*
X5746253Y-5490960D02*
X5727206Y-5500484D01*
X5727206Y-5500484D02*
X5698634Y-5500484D01*
X5879587Y-5500484D02*
X5860539Y-5490960D01*
X5860539Y-5490960D02*
X5851015Y-5471912D01*
X5851015Y-5471912D02*
X5851015Y-5300484D01*
X6031968Y-5490960D02*
X6012920Y-5500484D01*
X6012920Y-5500484D02*
X5974825Y-5500484D01*
X5974825Y-5500484D02*
X5955777Y-5490960D01*
X5955777Y-5490960D02*
X5946253Y-5471912D01*
X5946253Y-5471912D02*
X5946253Y-5395722D01*
X5946253Y-5395722D02*
X5955777Y-5376674D01*
X5955777Y-5376674D02*
X5974825Y-5367150D01*
X5974825Y-5367150D02*
X6012920Y-5367150D01*
X6012920Y-5367150D02*
X6031968Y-5376674D01*
X6031968Y-5376674D02*
X6041491Y-5395722D01*
X6041491Y-5395722D02*
X6041491Y-5414770D01*
X6041491Y-5414770D02*
X5946253Y-5433817D01*
X6117682Y-5490960D02*
X6136730Y-5500484D01*
X6136730Y-5500484D02*
X6174825Y-5500484D01*
X6174825Y-5500484D02*
X6193872Y-5490960D01*
X6193872Y-5490960D02*
X6203396Y-5471912D01*
X6203396Y-5471912D02*
X6203396Y-5462389D01*
X6203396Y-5462389D02*
X6193872Y-5443341D01*
X6193872Y-5443341D02*
X6174825Y-5433817D01*
X6174825Y-5433817D02*
X6146253Y-5433817D01*
X6146253Y-5433817D02*
X6127206Y-5424293D01*
X6127206Y-5424293D02*
X6117682Y-5405246D01*
X6117682Y-5405246D02*
X6117682Y-5395722D01*
X6117682Y-5395722D02*
X6127206Y-5376674D01*
X6127206Y-5376674D02*
X6146253Y-5367150D01*
X6146253Y-5367150D02*
X6174825Y-5367150D01*
X6174825Y-5367150D02*
X6193872Y-5376674D01*
X6270063Y-5576674D02*
X6279587Y-5567150D01*
X6279587Y-5567150D02*
X6298634Y-5538579D01*
X6298634Y-5538579D02*
X6308158Y-5519531D01*
X6308158Y-5519531D02*
X6317682Y-5490960D01*
X6317682Y-5490960D02*
X6327206Y-5443341D01*
X6327206Y-5443341D02*
X6327206Y-5405246D01*
X6327206Y-5405246D02*
X6317682Y-5357627D01*
X6317682Y-5357627D02*
X6308158Y-5329055D01*
X6308158Y-5329055D02*
X6298634Y-5310008D01*
X6298634Y-5310008D02*
X6279587Y-5281436D01*
X6279587Y-5281436D02*
X6270063Y-5271912D01*
D14*
X1457500Y-5635500D02*
X1457500Y-5710500D01*
X1420000Y-5673000D02*
X1495000Y-5673000D01*
D11*
X1793872Y-5564484D02*
X1812920Y-5564484D01*
X1812920Y-5564484D02*
X1831967Y-5574008D01*
X1831967Y-5574008D02*
X1841491Y-5583531D01*
X1841491Y-5583531D02*
X1851015Y-5602579D01*
X1851015Y-5602579D02*
X1860539Y-5640674D01*
X1860539Y-5640674D02*
X1860539Y-5688293D01*
X1860539Y-5688293D02*
X1851015Y-5726388D01*
X1851015Y-5726388D02*
X1841491Y-5745436D01*
X1841491Y-5745436D02*
X1831967Y-5754960D01*
X1831967Y-5754960D02*
X1812920Y-5764484D01*
X1812920Y-5764484D02*
X1793872Y-5764484D01*
X1793872Y-5764484D02*
X1774824Y-5754960D01*
X1774824Y-5754960D02*
X1765301Y-5745436D01*
X1765301Y-5745436D02*
X1755777Y-5726388D01*
X1755777Y-5726388D02*
X1746253Y-5688293D01*
X1746253Y-5688293D02*
X1746253Y-5640674D01*
X1746253Y-5640674D02*
X1755777Y-5602579D01*
X1755777Y-5602579D02*
X1765301Y-5583531D01*
X1765301Y-5583531D02*
X1774824Y-5574008D01*
X1774824Y-5574008D02*
X1793872Y-5564484D01*
X1946253Y-5745436D02*
X1955777Y-5754960D01*
X1955777Y-5754960D02*
X1946253Y-5764484D01*
X1946253Y-5764484D02*
X1936729Y-5754960D01*
X1936729Y-5754960D02*
X1946253Y-5745436D01*
X1946253Y-5745436D02*
X1946253Y-5764484D01*
X2022443Y-5564484D02*
X2155777Y-5564484D01*
X2155777Y-5564484D02*
X2070062Y-5764484D01*
X2327205Y-5564484D02*
X2231967Y-5564484D01*
X2231967Y-5564484D02*
X2222444Y-5659722D01*
X2222444Y-5659722D02*
X2231967Y-5650198D01*
X2231967Y-5650198D02*
X2251015Y-5640674D01*
X2251015Y-5640674D02*
X2298634Y-5640674D01*
X2298634Y-5640674D02*
X2317682Y-5650198D01*
X2317682Y-5650198D02*
X2327205Y-5659722D01*
X2327205Y-5659722D02*
X2336729Y-5678769D01*
X2336729Y-5678769D02*
X2336729Y-5726388D01*
X2336729Y-5726388D02*
X2327205Y-5745436D01*
X2327205Y-5745436D02*
X2317682Y-5754960D01*
X2317682Y-5754960D02*
X2298634Y-5764484D01*
X2298634Y-5764484D02*
X2251015Y-5764484D01*
X2251015Y-5764484D02*
X2231967Y-5754960D01*
X2231967Y-5754960D02*
X2222444Y-5745436D01*
X2460539Y-5564484D02*
X2479586Y-5564484D01*
X2479586Y-5564484D02*
X2498634Y-5574008D01*
X2498634Y-5574008D02*
X2508158Y-5583531D01*
X2508158Y-5583531D02*
X2517682Y-5602579D01*
X2517682Y-5602579D02*
X2527205Y-5640674D01*
X2527205Y-5640674D02*
X2527205Y-5688293D01*
X2527205Y-5688293D02*
X2517682Y-5726388D01*
X2517682Y-5726388D02*
X2508158Y-5745436D01*
X2508158Y-5745436D02*
X2498634Y-5754960D01*
X2498634Y-5754960D02*
X2479586Y-5764484D01*
X2479586Y-5764484D02*
X2460539Y-5764484D01*
X2460539Y-5764484D02*
X2441491Y-5754960D01*
X2441491Y-5754960D02*
X2431967Y-5745436D01*
X2431967Y-5745436D02*
X2422444Y-5726388D01*
X2422444Y-5726388D02*
X2412920Y-5688293D01*
X2412920Y-5688293D02*
X2412920Y-5640674D01*
X2412920Y-5640674D02*
X2422444Y-5602579D01*
X2422444Y-5602579D02*
X2431967Y-5583531D01*
X2431967Y-5583531D02*
X2441491Y-5574008D01*
X2441491Y-5574008D02*
X2460539Y-5564484D01*
X2612920Y-5764484D02*
X2612920Y-5631150D01*
X2612920Y-5650198D02*
X2622444Y-5640674D01*
X2622444Y-5640674D02*
X2641491Y-5631150D01*
X2641491Y-5631150D02*
X2670063Y-5631150D01*
X2670063Y-5631150D02*
X2689110Y-5640674D01*
X2689110Y-5640674D02*
X2698634Y-5659722D01*
X2698634Y-5659722D02*
X2698634Y-5764484D01*
X2698634Y-5659722D02*
X2708158Y-5640674D01*
X2708158Y-5640674D02*
X2727205Y-5631150D01*
X2727205Y-5631150D02*
X2755777Y-5631150D01*
X2755777Y-5631150D02*
X2774825Y-5640674D01*
X2774825Y-5640674D02*
X2784348Y-5659722D01*
X2784348Y-5659722D02*
X2784348Y-5764484D01*
X2879586Y-5764484D02*
X2879586Y-5631150D01*
X2879586Y-5650198D02*
X2889110Y-5640674D01*
X2889110Y-5640674D02*
X2908158Y-5631150D01*
X2908158Y-5631150D02*
X2936729Y-5631150D01*
X2936729Y-5631150D02*
X2955777Y-5640674D01*
X2955777Y-5640674D02*
X2965301Y-5659722D01*
X2965301Y-5659722D02*
X2965301Y-5764484D01*
X2965301Y-5659722D02*
X2974824Y-5640674D01*
X2974824Y-5640674D02*
X2993872Y-5631150D01*
X2993872Y-5631150D02*
X3022443Y-5631150D01*
X3022443Y-5631150D02*
X3041491Y-5640674D01*
X3041491Y-5640674D02*
X3051015Y-5659722D01*
X3051015Y-5659722D02*
X3051015Y-5764484D01*
X3441491Y-5554960D02*
X3270063Y-5812103D01*
X3698634Y-5564484D02*
X3717682Y-5564484D01*
X3717682Y-5564484D02*
X3736729Y-5574008D01*
X3736729Y-5574008D02*
X3746253Y-5583531D01*
X3746253Y-5583531D02*
X3755777Y-5602579D01*
X3755777Y-5602579D02*
X3765301Y-5640674D01*
X3765301Y-5640674D02*
X3765301Y-5688293D01*
X3765301Y-5688293D02*
X3755777Y-5726388D01*
X3755777Y-5726388D02*
X3746253Y-5745436D01*
X3746253Y-5745436D02*
X3736729Y-5754960D01*
X3736729Y-5754960D02*
X3717682Y-5764484D01*
X3717682Y-5764484D02*
X3698634Y-5764484D01*
X3698634Y-5764484D02*
X3679586Y-5754960D01*
X3679586Y-5754960D02*
X3670063Y-5745436D01*
X3670063Y-5745436D02*
X3660539Y-5726388D01*
X3660539Y-5726388D02*
X3651015Y-5688293D01*
X3651015Y-5688293D02*
X3651015Y-5640674D01*
X3651015Y-5640674D02*
X3660539Y-5602579D01*
X3660539Y-5602579D02*
X3670063Y-5583531D01*
X3670063Y-5583531D02*
X3679586Y-5574008D01*
X3679586Y-5574008D02*
X3698634Y-5564484D01*
X3851015Y-5745436D02*
X3860539Y-5754960D01*
X3860539Y-5754960D02*
X3851015Y-5764484D01*
X3851015Y-5764484D02*
X3841491Y-5754960D01*
X3841491Y-5754960D02*
X3851015Y-5745436D01*
X3851015Y-5745436D02*
X3851015Y-5764484D01*
X3984348Y-5564484D02*
X4003396Y-5564484D01*
X4003396Y-5564484D02*
X4022444Y-5574008D01*
X4022444Y-5574008D02*
X4031967Y-5583531D01*
X4031967Y-5583531D02*
X4041491Y-5602579D01*
X4041491Y-5602579D02*
X4051015Y-5640674D01*
X4051015Y-5640674D02*
X4051015Y-5688293D01*
X4051015Y-5688293D02*
X4041491Y-5726388D01*
X4041491Y-5726388D02*
X4031967Y-5745436D01*
X4031967Y-5745436D02*
X4022444Y-5754960D01*
X4022444Y-5754960D02*
X4003396Y-5764484D01*
X4003396Y-5764484D02*
X3984348Y-5764484D01*
X3984348Y-5764484D02*
X3965301Y-5754960D01*
X3965301Y-5754960D02*
X3955777Y-5745436D01*
X3955777Y-5745436D02*
X3946253Y-5726388D01*
X3946253Y-5726388D02*
X3936729Y-5688293D01*
X3936729Y-5688293D02*
X3936729Y-5640674D01*
X3936729Y-5640674D02*
X3946253Y-5602579D01*
X3946253Y-5602579D02*
X3955777Y-5583531D01*
X3955777Y-5583531D02*
X3965301Y-5574008D01*
X3965301Y-5574008D02*
X3984348Y-5564484D01*
X4127206Y-5583531D02*
X4136729Y-5574008D01*
X4136729Y-5574008D02*
X4155777Y-5564484D01*
X4155777Y-5564484D02*
X4203396Y-5564484D01*
X4203396Y-5564484D02*
X4222444Y-5574008D01*
X4222444Y-5574008D02*
X4231968Y-5583531D01*
X4231968Y-5583531D02*
X4241491Y-5602579D01*
X4241491Y-5602579D02*
X4241491Y-5621627D01*
X4241491Y-5621627D02*
X4231968Y-5650198D01*
X4231968Y-5650198D02*
X4117682Y-5764484D01*
X4117682Y-5764484D02*
X4241491Y-5764484D01*
X4336729Y-5764484D02*
X4374825Y-5764484D01*
X4374825Y-5764484D02*
X4393872Y-5754960D01*
X4393872Y-5754960D02*
X4403396Y-5745436D01*
X4403396Y-5745436D02*
X4422444Y-5716865D01*
X4422444Y-5716865D02*
X4431968Y-5678769D01*
X4431968Y-5678769D02*
X4431968Y-5602579D01*
X4431968Y-5602579D02*
X4422444Y-5583531D01*
X4422444Y-5583531D02*
X4412920Y-5574008D01*
X4412920Y-5574008D02*
X4393872Y-5564484D01*
X4393872Y-5564484D02*
X4355777Y-5564484D01*
X4355777Y-5564484D02*
X4336729Y-5574008D01*
X4336729Y-5574008D02*
X4327206Y-5583531D01*
X4327206Y-5583531D02*
X4317682Y-5602579D01*
X4317682Y-5602579D02*
X4317682Y-5650198D01*
X4317682Y-5650198D02*
X4327206Y-5669246D01*
X4327206Y-5669246D02*
X4336729Y-5678769D01*
X4336729Y-5678769D02*
X4355777Y-5688293D01*
X4355777Y-5688293D02*
X4393872Y-5688293D01*
X4393872Y-5688293D02*
X4412920Y-5678769D01*
X4412920Y-5678769D02*
X4422444Y-5669246D01*
X4422444Y-5669246D02*
X4431968Y-5650198D01*
X4612920Y-5564484D02*
X4517682Y-5564484D01*
X4517682Y-5564484D02*
X4508158Y-5659722D01*
X4508158Y-5659722D02*
X4517682Y-5650198D01*
X4517682Y-5650198D02*
X4536729Y-5640674D01*
X4536729Y-5640674D02*
X4584349Y-5640674D01*
X4584349Y-5640674D02*
X4603396Y-5650198D01*
X4603396Y-5650198D02*
X4612920Y-5659722D01*
X4612920Y-5659722D02*
X4622444Y-5678769D01*
X4622444Y-5678769D02*
X4622444Y-5726388D01*
X4622444Y-5726388D02*
X4612920Y-5745436D01*
X4612920Y-5745436D02*
X4603396Y-5754960D01*
X4603396Y-5754960D02*
X4584349Y-5764484D01*
X4584349Y-5764484D02*
X4536729Y-5764484D01*
X4536729Y-5764484D02*
X4517682Y-5754960D01*
X4517682Y-5754960D02*
X4508158Y-5745436D01*
X4698634Y-5564484D02*
X4698634Y-5602579D01*
X4774825Y-5564484D02*
X4774825Y-5602579D01*
X5070063Y-5840674D02*
X5060539Y-5831150D01*
X5060539Y-5831150D02*
X5041491Y-5802579D01*
X5041491Y-5802579D02*
X5031968Y-5783531D01*
X5031968Y-5783531D02*
X5022444Y-5754960D01*
X5022444Y-5754960D02*
X5012920Y-5707341D01*
X5012920Y-5707341D02*
X5012920Y-5669246D01*
X5012920Y-5669246D02*
X5022444Y-5621627D01*
X5022444Y-5621627D02*
X5031968Y-5593055D01*
X5031968Y-5593055D02*
X5041491Y-5574008D01*
X5041491Y-5574008D02*
X5060539Y-5545436D01*
X5060539Y-5545436D02*
X5070063Y-5535912D01*
X5231968Y-5564484D02*
X5193872Y-5564484D01*
X5193872Y-5564484D02*
X5174825Y-5574008D01*
X5174825Y-5574008D02*
X5165301Y-5583531D01*
X5165301Y-5583531D02*
X5146253Y-5612103D01*
X5146253Y-5612103D02*
X5136730Y-5650198D01*
X5136730Y-5650198D02*
X5136730Y-5726388D01*
X5136730Y-5726388D02*
X5146253Y-5745436D01*
X5146253Y-5745436D02*
X5155777Y-5754960D01*
X5155777Y-5754960D02*
X5174825Y-5764484D01*
X5174825Y-5764484D02*
X5212920Y-5764484D01*
X5212920Y-5764484D02*
X5231968Y-5754960D01*
X5231968Y-5754960D02*
X5241491Y-5745436D01*
X5241491Y-5745436D02*
X5251015Y-5726388D01*
X5251015Y-5726388D02*
X5251015Y-5678769D01*
X5251015Y-5678769D02*
X5241491Y-5659722D01*
X5241491Y-5659722D02*
X5231968Y-5650198D01*
X5231968Y-5650198D02*
X5212920Y-5640674D01*
X5212920Y-5640674D02*
X5174825Y-5640674D01*
X5174825Y-5640674D02*
X5155777Y-5650198D01*
X5155777Y-5650198D02*
X5146253Y-5659722D01*
X5146253Y-5659722D02*
X5136730Y-5678769D01*
X5489111Y-5764484D02*
X5489111Y-5564484D01*
X5574825Y-5764484D02*
X5574825Y-5659722D01*
X5574825Y-5659722D02*
X5565301Y-5640674D01*
X5565301Y-5640674D02*
X5546253Y-5631150D01*
X5546253Y-5631150D02*
X5517682Y-5631150D01*
X5517682Y-5631150D02*
X5498634Y-5640674D01*
X5498634Y-5640674D02*
X5489111Y-5650198D01*
X5698634Y-5764484D02*
X5679587Y-5754960D01*
X5679587Y-5754960D02*
X5670063Y-5745436D01*
X5670063Y-5745436D02*
X5660539Y-5726388D01*
X5660539Y-5726388D02*
X5660539Y-5669246D01*
X5660539Y-5669246D02*
X5670063Y-5650198D01*
X5670063Y-5650198D02*
X5679587Y-5640674D01*
X5679587Y-5640674D02*
X5698634Y-5631150D01*
X5698634Y-5631150D02*
X5727206Y-5631150D01*
X5727206Y-5631150D02*
X5746253Y-5640674D01*
X5746253Y-5640674D02*
X5755777Y-5650198D01*
X5755777Y-5650198D02*
X5765301Y-5669246D01*
X5765301Y-5669246D02*
X5765301Y-5726388D01*
X5765301Y-5726388D02*
X5755777Y-5745436D01*
X5755777Y-5745436D02*
X5746253Y-5754960D01*
X5746253Y-5754960D02*
X5727206Y-5764484D01*
X5727206Y-5764484D02*
X5698634Y-5764484D01*
X5879587Y-5764484D02*
X5860539Y-5754960D01*
X5860539Y-5754960D02*
X5851015Y-5735912D01*
X5851015Y-5735912D02*
X5851015Y-5564484D01*
X6031968Y-5754960D02*
X6012920Y-5764484D01*
X6012920Y-5764484D02*
X5974825Y-5764484D01*
X5974825Y-5764484D02*
X5955777Y-5754960D01*
X5955777Y-5754960D02*
X5946253Y-5735912D01*
X5946253Y-5735912D02*
X5946253Y-5659722D01*
X5946253Y-5659722D02*
X5955777Y-5640674D01*
X5955777Y-5640674D02*
X5974825Y-5631150D01*
X5974825Y-5631150D02*
X6012920Y-5631150D01*
X6012920Y-5631150D02*
X6031968Y-5640674D01*
X6031968Y-5640674D02*
X6041491Y-5659722D01*
X6041491Y-5659722D02*
X6041491Y-5678769D01*
X6041491Y-5678769D02*
X5946253Y-5697817D01*
X6117682Y-5754960D02*
X6136730Y-5764484D01*
X6136730Y-5764484D02*
X6174825Y-5764484D01*
X6174825Y-5764484D02*
X6193872Y-5754960D01*
X6193872Y-5754960D02*
X6203396Y-5735912D01*
X6203396Y-5735912D02*
X6203396Y-5726388D01*
X6203396Y-5726388D02*
X6193872Y-5707341D01*
X6193872Y-5707341D02*
X6174825Y-5697817D01*
X6174825Y-5697817D02*
X6146253Y-5697817D01*
X6146253Y-5697817D02*
X6127206Y-5688293D01*
X6127206Y-5688293D02*
X6117682Y-5669246D01*
X6117682Y-5669246D02*
X6117682Y-5659722D01*
X6117682Y-5659722D02*
X6127206Y-5640674D01*
X6127206Y-5640674D02*
X6146253Y-5631150D01*
X6146253Y-5631150D02*
X6174825Y-5631150D01*
X6174825Y-5631150D02*
X6193872Y-5640674D01*
X6270063Y-5840674D02*
X6279587Y-5831150D01*
X6279587Y-5831150D02*
X6298634Y-5802579D01*
X6298634Y-5802579D02*
X6308158Y-5783531D01*
X6308158Y-5783531D02*
X6317682Y-5754960D01*
X6317682Y-5754960D02*
X6327206Y-5707341D01*
X6327206Y-5707341D02*
X6327206Y-5669246D01*
X6327206Y-5669246D02*
X6317682Y-5621627D01*
X6317682Y-5621627D02*
X6308158Y-5593055D01*
X6308158Y-5593055D02*
X6298634Y-5574008D01*
X6298634Y-5574008D02*
X6279587Y-5545436D01*
X6279587Y-5545436D02*
X6270063Y-5535912D01*
D10*
X1480356Y-5972356D02*
X1480356Y-5901644D01*
X1409644Y-5901644D01*
X1409644Y-5972356D01*
X1480356Y-5972356D01*
D11*
X1860539Y-6028484D02*
X1746253Y-6028484D01*
X1803396Y-6028484D02*
X1803396Y-5828484D01*
X1803396Y-5828484D02*
X1784348Y-5857055D01*
X1784348Y-5857055D02*
X1765301Y-5876103D01*
X1765301Y-5876103D02*
X1746253Y-5885627D01*
X1946253Y-6009436D02*
X1955777Y-6018960D01*
X1955777Y-6018960D02*
X1946253Y-6028484D01*
X1946253Y-6028484D02*
X1936729Y-6018960D01*
X1936729Y-6018960D02*
X1946253Y-6009436D01*
X1946253Y-6009436D02*
X1946253Y-6028484D01*
X2079586Y-5828484D02*
X2098634Y-5828484D01*
X2098634Y-5828484D02*
X2117682Y-5838008D01*
X2117682Y-5838008D02*
X2127205Y-5847531D01*
X2127205Y-5847531D02*
X2136729Y-5866579D01*
X2136729Y-5866579D02*
X2146253Y-5904674D01*
X2146253Y-5904674D02*
X2146253Y-5952293D01*
X2146253Y-5952293D02*
X2136729Y-5990388D01*
X2136729Y-5990388D02*
X2127205Y-6009436D01*
X2127205Y-6009436D02*
X2117682Y-6018960D01*
X2117682Y-6018960D02*
X2098634Y-6028484D01*
X2098634Y-6028484D02*
X2079586Y-6028484D01*
X2079586Y-6028484D02*
X2060539Y-6018960D01*
X2060539Y-6018960D02*
X2051015Y-6009436D01*
X2051015Y-6009436D02*
X2041491Y-5990388D01*
X2041491Y-5990388D02*
X2031967Y-5952293D01*
X2031967Y-5952293D02*
X2031967Y-5904674D01*
X2031967Y-5904674D02*
X2041491Y-5866579D01*
X2041491Y-5866579D02*
X2051015Y-5847531D01*
X2051015Y-5847531D02*
X2060539Y-5838008D01*
X2060539Y-5838008D02*
X2079586Y-5828484D01*
X2270063Y-5828484D02*
X2289110Y-5828484D01*
X2289110Y-5828484D02*
X2308158Y-5838008D01*
X2308158Y-5838008D02*
X2317682Y-5847531D01*
X2317682Y-5847531D02*
X2327205Y-5866579D01*
X2327205Y-5866579D02*
X2336729Y-5904674D01*
X2336729Y-5904674D02*
X2336729Y-5952293D01*
X2336729Y-5952293D02*
X2327205Y-5990388D01*
X2327205Y-5990388D02*
X2317682Y-6009436D01*
X2317682Y-6009436D02*
X2308158Y-6018960D01*
X2308158Y-6018960D02*
X2289110Y-6028484D01*
X2289110Y-6028484D02*
X2270063Y-6028484D01*
X2270063Y-6028484D02*
X2251015Y-6018960D01*
X2251015Y-6018960D02*
X2241491Y-6009436D01*
X2241491Y-6009436D02*
X2231967Y-5990388D01*
X2231967Y-5990388D02*
X2222444Y-5952293D01*
X2222444Y-5952293D02*
X2222444Y-5904674D01*
X2222444Y-5904674D02*
X2231967Y-5866579D01*
X2231967Y-5866579D02*
X2241491Y-5847531D01*
X2241491Y-5847531D02*
X2251015Y-5838008D01*
X2251015Y-5838008D02*
X2270063Y-5828484D01*
X2460539Y-5828484D02*
X2479586Y-5828484D01*
X2479586Y-5828484D02*
X2498634Y-5838008D01*
X2498634Y-5838008D02*
X2508158Y-5847531D01*
X2508158Y-5847531D02*
X2517682Y-5866579D01*
X2517682Y-5866579D02*
X2527205Y-5904674D01*
X2527205Y-5904674D02*
X2527205Y-5952293D01*
X2527205Y-5952293D02*
X2517682Y-5990388D01*
X2517682Y-5990388D02*
X2508158Y-6009436D01*
X2508158Y-6009436D02*
X2498634Y-6018960D01*
X2498634Y-6018960D02*
X2479586Y-6028484D01*
X2479586Y-6028484D02*
X2460539Y-6028484D01*
X2460539Y-6028484D02*
X2441491Y-6018960D01*
X2441491Y-6018960D02*
X2431967Y-6009436D01*
X2431967Y-6009436D02*
X2422444Y-5990388D01*
X2422444Y-5990388D02*
X2412920Y-5952293D01*
X2412920Y-5952293D02*
X2412920Y-5904674D01*
X2412920Y-5904674D02*
X2422444Y-5866579D01*
X2422444Y-5866579D02*
X2431967Y-5847531D01*
X2431967Y-5847531D02*
X2441491Y-5838008D01*
X2441491Y-5838008D02*
X2460539Y-5828484D01*
X2612920Y-6028484D02*
X2612920Y-5895150D01*
X2612920Y-5914198D02*
X2622444Y-5904674D01*
X2622444Y-5904674D02*
X2641491Y-5895150D01*
X2641491Y-5895150D02*
X2670063Y-5895150D01*
X2670063Y-5895150D02*
X2689110Y-5904674D01*
X2689110Y-5904674D02*
X2698634Y-5923722D01*
X2698634Y-5923722D02*
X2698634Y-6028484D01*
X2698634Y-5923722D02*
X2708158Y-5904674D01*
X2708158Y-5904674D02*
X2727205Y-5895150D01*
X2727205Y-5895150D02*
X2755777Y-5895150D01*
X2755777Y-5895150D02*
X2774825Y-5904674D01*
X2774825Y-5904674D02*
X2784348Y-5923722D01*
X2784348Y-5923722D02*
X2784348Y-6028484D01*
X2879586Y-6028484D02*
X2879586Y-5895150D01*
X2879586Y-5914198D02*
X2889110Y-5904674D01*
X2889110Y-5904674D02*
X2908158Y-5895150D01*
X2908158Y-5895150D02*
X2936729Y-5895150D01*
X2936729Y-5895150D02*
X2955777Y-5904674D01*
X2955777Y-5904674D02*
X2965301Y-5923722D01*
X2965301Y-5923722D02*
X2965301Y-6028484D01*
X2965301Y-5923722D02*
X2974824Y-5904674D01*
X2974824Y-5904674D02*
X2993872Y-5895150D01*
X2993872Y-5895150D02*
X3022443Y-5895150D01*
X3022443Y-5895150D02*
X3041491Y-5904674D01*
X3041491Y-5904674D02*
X3051015Y-5923722D01*
X3051015Y-5923722D02*
X3051015Y-6028484D01*
X3441491Y-5818960D02*
X3270063Y-6076103D01*
X3698634Y-5828484D02*
X3717682Y-5828484D01*
X3717682Y-5828484D02*
X3736729Y-5838008D01*
X3736729Y-5838008D02*
X3746253Y-5847531D01*
X3746253Y-5847531D02*
X3755777Y-5866579D01*
X3755777Y-5866579D02*
X3765301Y-5904674D01*
X3765301Y-5904674D02*
X3765301Y-5952293D01*
X3765301Y-5952293D02*
X3755777Y-5990388D01*
X3755777Y-5990388D02*
X3746253Y-6009436D01*
X3746253Y-6009436D02*
X3736729Y-6018960D01*
X3736729Y-6018960D02*
X3717682Y-6028484D01*
X3717682Y-6028484D02*
X3698634Y-6028484D01*
X3698634Y-6028484D02*
X3679586Y-6018960D01*
X3679586Y-6018960D02*
X3670063Y-6009436D01*
X3670063Y-6009436D02*
X3660539Y-5990388D01*
X3660539Y-5990388D02*
X3651015Y-5952293D01*
X3651015Y-5952293D02*
X3651015Y-5904674D01*
X3651015Y-5904674D02*
X3660539Y-5866579D01*
X3660539Y-5866579D02*
X3670063Y-5847531D01*
X3670063Y-5847531D02*
X3679586Y-5838008D01*
X3679586Y-5838008D02*
X3698634Y-5828484D01*
X3851015Y-6009436D02*
X3860539Y-6018960D01*
X3860539Y-6018960D02*
X3851015Y-6028484D01*
X3851015Y-6028484D02*
X3841491Y-6018960D01*
X3841491Y-6018960D02*
X3851015Y-6009436D01*
X3851015Y-6009436D02*
X3851015Y-6028484D01*
X3984348Y-5828484D02*
X4003396Y-5828484D01*
X4003396Y-5828484D02*
X4022444Y-5838008D01*
X4022444Y-5838008D02*
X4031967Y-5847531D01*
X4031967Y-5847531D02*
X4041491Y-5866579D01*
X4041491Y-5866579D02*
X4051015Y-5904674D01*
X4051015Y-5904674D02*
X4051015Y-5952293D01*
X4051015Y-5952293D02*
X4041491Y-5990388D01*
X4041491Y-5990388D02*
X4031967Y-6009436D01*
X4031967Y-6009436D02*
X4022444Y-6018960D01*
X4022444Y-6018960D02*
X4003396Y-6028484D01*
X4003396Y-6028484D02*
X3984348Y-6028484D01*
X3984348Y-6028484D02*
X3965301Y-6018960D01*
X3965301Y-6018960D02*
X3955777Y-6009436D01*
X3955777Y-6009436D02*
X3946253Y-5990388D01*
X3946253Y-5990388D02*
X3936729Y-5952293D01*
X3936729Y-5952293D02*
X3936729Y-5904674D01*
X3936729Y-5904674D02*
X3946253Y-5866579D01*
X3946253Y-5866579D02*
X3955777Y-5847531D01*
X3955777Y-5847531D02*
X3965301Y-5838008D01*
X3965301Y-5838008D02*
X3984348Y-5828484D01*
X4117682Y-5828484D02*
X4241491Y-5828484D01*
X4241491Y-5828484D02*
X4174825Y-5904674D01*
X4174825Y-5904674D02*
X4203396Y-5904674D01*
X4203396Y-5904674D02*
X4222444Y-5914198D01*
X4222444Y-5914198D02*
X4231968Y-5923722D01*
X4231968Y-5923722D02*
X4241491Y-5942769D01*
X4241491Y-5942769D02*
X4241491Y-5990388D01*
X4241491Y-5990388D02*
X4231968Y-6009436D01*
X4231968Y-6009436D02*
X4222444Y-6018960D01*
X4222444Y-6018960D02*
X4203396Y-6028484D01*
X4203396Y-6028484D02*
X4146253Y-6028484D01*
X4146253Y-6028484D02*
X4127206Y-6018960D01*
X4127206Y-6018960D02*
X4117682Y-6009436D01*
X4336729Y-6028484D02*
X4374825Y-6028484D01*
X4374825Y-6028484D02*
X4393872Y-6018960D01*
X4393872Y-6018960D02*
X4403396Y-6009436D01*
X4403396Y-6009436D02*
X4422444Y-5980865D01*
X4422444Y-5980865D02*
X4431968Y-5942769D01*
X4431968Y-5942769D02*
X4431968Y-5866579D01*
X4431968Y-5866579D02*
X4422444Y-5847531D01*
X4422444Y-5847531D02*
X4412920Y-5838008D01*
X4412920Y-5838008D02*
X4393872Y-5828484D01*
X4393872Y-5828484D02*
X4355777Y-5828484D01*
X4355777Y-5828484D02*
X4336729Y-5838008D01*
X4336729Y-5838008D02*
X4327206Y-5847531D01*
X4327206Y-5847531D02*
X4317682Y-5866579D01*
X4317682Y-5866579D02*
X4317682Y-5914198D01*
X4317682Y-5914198D02*
X4327206Y-5933246D01*
X4327206Y-5933246D02*
X4336729Y-5942769D01*
X4336729Y-5942769D02*
X4355777Y-5952293D01*
X4355777Y-5952293D02*
X4393872Y-5952293D01*
X4393872Y-5952293D02*
X4412920Y-5942769D01*
X4412920Y-5942769D02*
X4422444Y-5933246D01*
X4422444Y-5933246D02*
X4431968Y-5914198D01*
X4603396Y-5895150D02*
X4603396Y-6028484D01*
X4555777Y-5818960D02*
X4508158Y-5961817D01*
X4508158Y-5961817D02*
X4631968Y-5961817D01*
X4698634Y-5828484D02*
X4698634Y-5866579D01*
X4774825Y-5828484D02*
X4774825Y-5866579D01*
X5070063Y-6104674D02*
X5060539Y-6095150D01*
X5060539Y-6095150D02*
X5041491Y-6066579D01*
X5041491Y-6066579D02*
X5031968Y-6047531D01*
X5031968Y-6047531D02*
X5022444Y-6018960D01*
X5022444Y-6018960D02*
X5012920Y-5971341D01*
X5012920Y-5971341D02*
X5012920Y-5933246D01*
X5012920Y-5933246D02*
X5022444Y-5885627D01*
X5022444Y-5885627D02*
X5031968Y-5857055D01*
X5031968Y-5857055D02*
X5041491Y-5838008D01*
X5041491Y-5838008D02*
X5060539Y-5809436D01*
X5060539Y-5809436D02*
X5070063Y-5799912D01*
X5127206Y-5828484D02*
X5260539Y-5828484D01*
X5260539Y-5828484D02*
X5174825Y-6028484D01*
X5489111Y-6028484D02*
X5489111Y-5828484D01*
X5574825Y-6028484D02*
X5574825Y-5923722D01*
X5574825Y-5923722D02*
X5565301Y-5904674D01*
X5565301Y-5904674D02*
X5546253Y-5895150D01*
X5546253Y-5895150D02*
X5517682Y-5895150D01*
X5517682Y-5895150D02*
X5498634Y-5904674D01*
X5498634Y-5904674D02*
X5489111Y-5914198D01*
X5698634Y-6028484D02*
X5679587Y-6018960D01*
X5679587Y-6018960D02*
X5670063Y-6009436D01*
X5670063Y-6009436D02*
X5660539Y-5990388D01*
X5660539Y-5990388D02*
X5660539Y-5933246D01*
X5660539Y-5933246D02*
X5670063Y-5914198D01*
X5670063Y-5914198D02*
X5679587Y-5904674D01*
X5679587Y-5904674D02*
X5698634Y-5895150D01*
X5698634Y-5895150D02*
X5727206Y-5895150D01*
X5727206Y-5895150D02*
X5746253Y-5904674D01*
X5746253Y-5904674D02*
X5755777Y-5914198D01*
X5755777Y-5914198D02*
X5765301Y-5933246D01*
X5765301Y-5933246D02*
X5765301Y-5990388D01*
X5765301Y-5990388D02*
X5755777Y-6009436D01*
X5755777Y-6009436D02*
X5746253Y-6018960D01*
X5746253Y-6018960D02*
X5727206Y-6028484D01*
X5727206Y-6028484D02*
X5698634Y-6028484D01*
X5879587Y-6028484D02*
X5860539Y-6018960D01*
X5860539Y-6018960D02*
X5851015Y-5999912D01*
X5851015Y-5999912D02*
X5851015Y-5828484D01*
X6031968Y-6018960D02*
X6012920Y-6028484D01*
X6012920Y-6028484D02*
X5974825Y-6028484D01*
X5974825Y-6028484D02*
X5955777Y-6018960D01*
X5955777Y-6018960D02*
X5946253Y-5999912D01*
X5946253Y-5999912D02*
X5946253Y-5923722D01*
X5946253Y-5923722D02*
X5955777Y-5904674D01*
X5955777Y-5904674D02*
X5974825Y-5895150D01*
X5974825Y-5895150D02*
X6012920Y-5895150D01*
X6012920Y-5895150D02*
X6031968Y-5904674D01*
X6031968Y-5904674D02*
X6041491Y-5923722D01*
X6041491Y-5923722D02*
X6041491Y-5942769D01*
X6041491Y-5942769D02*
X5946253Y-5961817D01*
X6117682Y-6018960D02*
X6136730Y-6028484D01*
X6136730Y-6028484D02*
X6174825Y-6028484D01*
X6174825Y-6028484D02*
X6193872Y-6018960D01*
X6193872Y-6018960D02*
X6203396Y-5999912D01*
X6203396Y-5999912D02*
X6203396Y-5990388D01*
X6203396Y-5990388D02*
X6193872Y-5971341D01*
X6193872Y-5971341D02*
X6174825Y-5961817D01*
X6174825Y-5961817D02*
X6146253Y-5961817D01*
X6146253Y-5961817D02*
X6127206Y-5952293D01*
X6127206Y-5952293D02*
X6117682Y-5933246D01*
X6117682Y-5933246D02*
X6117682Y-5923722D01*
X6117682Y-5923722D02*
X6127206Y-5904674D01*
X6127206Y-5904674D02*
X6146253Y-5895150D01*
X6146253Y-5895150D02*
X6174825Y-5895150D01*
X6174825Y-5895150D02*
X6193872Y-5904674D01*
X6270063Y-6104674D02*
X6279587Y-6095150D01*
X6279587Y-6095150D02*
X6298634Y-6066579D01*
X6298634Y-6066579D02*
X6308158Y-6047531D01*
X6308158Y-6047531D02*
X6317682Y-6018960D01*
X6317682Y-6018960D02*
X6327206Y-5971341D01*
X6327206Y-5971341D02*
X6327206Y-5933246D01*
X6327206Y-5933246D02*
X6317682Y-5885627D01*
X6317682Y-5885627D02*
X6308158Y-5857055D01*
X6308158Y-5857055D02*
X6298634Y-5838008D01*
X6298634Y-5838008D02*
X6279587Y-5809436D01*
X6279587Y-5809436D02*
X6270063Y-5799912D01*
M02*
